<svg xmlns="http://www.w3.org/2000/svg" viewBox="0 0 512 512">
  <polygon fill="#fff" points="137 165.28 40.28 165.28 40.28 205.28 205.28 205.28 205.28 40.28 165.28 40.28 165.28 137 28.28 0 0 28.28 137 165.28"/>
  <polygon fill="#fff" points="0 483.72 28.28 512 165.28 375 165.28 471.72 205.28 471.72 205.28 306.72 40.28 306.72 40.28 346.72 137 346.72 0 483.72"/>
  <polygon fill="#fff" points="471.72 205.28 471.72 165.28 375 165.28 512 28.28 483.72 0 346.72 137 346.72 40.28 306.72 40.28 306.72 205.28 471.72 205.28"/>
  <polygon fill="#fff" points="346.72 471.72 346.72 375 483.72 512 512 483.72 375 346.72 471.72 346.72 471.72 306.72 306.72 306.72 306.72 471.72 346.72 471.72"/>
</svg>
