<svg xmlns="http://www.w3.org/2000/svg" xmlns:xlink="http://www.w3.org/1999/xlink" viewBox="0 0 24 24">
  <defs>
    <style>
      .cls-1 {
        fill: none;
      }

      .cls-2 {
        clip-path: url(#clip-path);
      }

      .cls-3 {
        fill: #29f1c3;
      }
    </style>
    <clipPath id="clip-path">
      <rect class="cls-1" width="24" height="24"/>
    </clipPath>
  </defs>
  <g id="Слой_2" data-name="Слой 2">
    <g id="Слой_1-2" data-name="Слой 1">
      <g class="cls-2">
        <path class="cls-3" d="M24,24H0V3A3,3,0,0,1,3,0H21a3,3,0,0,1,3,3ZM2,22H22V3a1,1,0,0,0-1-1H3A1,1,0,0,0,2,3Z"/>
        <path class="cls-3" d="M9.33,17.92a2,2,0,0,1-1.41-.59L3.29,12.71l1.42-1.42,4.62,4.63,10-10,1.42,1.41-10,10a2,2,0,0,1-1.42.59"/>
      </g>
    </g>
  </g>
</svg>
