<svg xmlns="http://www.w3.org/2000/svg" viewBox="0 0 140 140">
  <defs>
    <style>
      .cls-1 {
        fill: #39579a;
      }
    </style>
  </defs>
  <g id="Слой_2" data-name="Слой 2">
    <g id="Слой_1-2" data-name="Слой 1">
      <path class="cls-1" d="M111.63,140H0V28.37L28.37,0H140V111.63ZM9.33,130.67h98.43l22.91-22.91V9.33H32.24L9.33,32.24Z"/>
      <path class="cls-1" d="M88.48,33H78.87c-10.8,0-17.78,7.16-17.78,18.24v8.41H51.43a1.51,1.51,0,0,0-1.51,1.51V73.29a1.51,1.51,0,0,0,1.51,1.51h9.66v30.75a1.51,1.51,0,0,0,1.51,1.51H75.21a1.51,1.51,0,0,0,1.52-1.51V74.8H88a1.52,1.52,0,0,0,1.51-1.51V61.1A1.54,1.54,0,0,0,89.1,60,1.52,1.52,0,0,0,88,59.59H76.73V52.46c0-3.43.81-5.17,5.28-5.17h6.47A1.51,1.51,0,0,0,90,45.78V34.46A1.51,1.51,0,0,0,88.48,33Z"/>
    </g>
  </g>
</svg>
