<svg xmlns="http://www.w3.org/2000/svg" xmlns:xlink="http://www.w3.org/1999/xlink" viewBox="0 0 140 140">
  <defs>
    <style>
      .cls-1 {
        fill: none;
      }

      .cls-2 {
        fill: #2095f3;
      }

      .cls-3 {
        clip-path: url(#clip-path);
      }

      .cls-4 {
        fill: #2196f3;
      }

      .cls-5 {
        fill: #1e88e5;
      }

      .cls-6 {
        fill: #f44336;
      }

      .cls-7 {
        fill: #e53935;
      }

      .cls-8 {
        fill: #4caf50;
      }

      .cls-9 {
        fill: #43a047;
      }

      .cls-10 {
        fill: #ffc107;
      }

      .cls-11 {
        fill: #ffb300;
      }
    </style>
    <clipPath id="clip-path" transform="translate(0 0)">
      <rect class="cls-1" width="140" height="140"/>
    </clipPath>
  </defs>
  <g id="Слой_2" data-name="Слой 2">
    <g id="Слой_1-2" data-name="Слой 1">
      <path class="cls-2" d="M9.33,32.24,32.24,9.33h98.43v98.43l-22.91,22.91H9.33ZM28.37,0,0,28.37V140H111.63L140,111.63V0Z" transform="translate(0 0)"/>
      <g class="cls-3">
        <path class="cls-4" d="M108.53,63a.63.63,0,0,1,.63.63v6.62A39.17,39.17,0,1,1,97.23,42.12a.63.63,0,0,1,0,.9l-9.36,9.36a.64.64,0,0,1-.88,0,24.66,24.66,0,1,0,6.58,25.11h-23a.63.63,0,0,1-.63-.63V63.64a.63.63,0,0,1,.63-.63Z" transform="translate(0 0)"/>
        <path class="cls-5" d="M108.53,63h-4.72a.64.64,0,0,1,.63.63v6.62a38.49,38.49,0,0,1-.68,7.25,39.17,39.17,0,0,1-36.13,31.85c.7,0,1.39.06,2.09.07a39.13,39.13,0,0,0,39.44-39.17V63.64a.63.63,0,0,0-.63-.63" transform="translate(0 0)"/>
        <path class="cls-6" d="M47.6,59.93,35.7,51.34a39.17,39.17,0,0,1,61.53-9.22.63.63,0,0,1,0,.9l-9.36,9.36a.64.64,0,0,1-.88,0,24.66,24.66,0,0,0-39.4,7.53" transform="translate(0 0)"/>
        <path class="cls-7" d="M44.16,57.45l3.44,2.48a24.69,24.69,0,0,1,19.83-14.2l.2,0c-.77-.07-1.56-.11-2.36-.11A24.61,24.61,0,0,0,44.16,57.45" transform="translate(0 0)"/>
        <path class="cls-7" d="M92.5,42.12a.63.63,0,0,1,0,.9l-7.61,7.6A23.65,23.65,0,0,1,87,52.4a.64.64,0,0,0,.88,0L97.24,43a.63.63,0,0,0,0-.9A39,39,0,0,0,70,31.1c-.79,0-1.58,0-2.36.07A39,39,0,0,1,92.5,42.12" transform="translate(0 0)"/>
        <path class="cls-8" d="M98.73,96.88A39.17,39.17,0,0,1,35,87.78l12.15-8.32a24.66,24.66,0,0,0,39.72,8.83Z" transform="translate(0 0)"/>
        <path class="cls-9" d="M47.11,79.46l-3.58,2.45a24.64,24.64,0,0,0,21.74,13c.8,0,1.58,0,2.36-.11A24.67,24.67,0,0,1,47.11,79.46" transform="translate(0 0)"/>
        <path class="cls-9" d="M70,109.43A39.05,39.05,0,0,0,98.73,96.88l-2.92-2.1a39.09,39.09,0,0,1-28.17,14.58c.78,0,1.57.07,2.36.07" transform="translate(0 0)"/>
        <path class="cls-10" d="M45.34,70.26a24.47,24.47,0,0,0,1.77,9.2L35,87.78a39.28,39.28,0,0,1,.74-36.44l11.9,8.59a24.65,24.65,0,0,0-2.26,10.33" transform="translate(0 0)"/>
        <path class="cls-11" d="M43.53,81.91l3.58-2.45a24.76,24.76,0,0,1,.49-19.53l-3.44-2.48a24.8,24.8,0,0,0-.63,24.46" transform="translate(0 0)"/>
      </g>
    </g>
  </g>
</svg>
