<svg xmlns="http://www.w3.org/2000/svg" viewBox="0 0 114.9 95.5"><defs><style>.cls-1{fill:#eee417;}</style></defs><g id="Слой_2" data-name="Слой 2"><g id="Слой_1-2" data-name="Слой 1"><path class="cls-1" d="M40.08,47.3H11.13l-.21-.14L4.5,40.74V11.14l.15-.22L11.06,4.5H40l.21.14,6.41,6.42v29.6l-.14.22Zm-28.6-1H39.67l6-6V11.48l-6-6H11.48l-6,6V40.32Zm21.85-8.44H17.43l-.18-.14-3.54-3.55V17.92l.14-.18,3.55-3.55H33.3l.18.14L37,17.88V34.13l-.14.18Zm-15.52-1H32.92L36,33.75V18.3l-3.1-3.11H17.81l-3.1,3.11V33.75Z"/><path class="cls-1" d="M107.76,95.5H79.35l-.21-.15-6.29-6.3V60L73,59.8l6.29-6.3h28.4l.21.14,6.3,6.3V89l-.15.23Zm-28.06-1h27.64l5.86-5.86V60.36l-5.86-5.86H79.7l-5.85,5.86V88.64Zm21.44-8.26H85.54l-.18-.15-3.48-3.48V66.67l.14-.19L85.51,63H101.1l.18.15,3.48,3.48V82.57l-.14.18Zm-15.22-1h14.8l3-3V67l-3-3H85.92l-3,3V82.19Z"/><path class="cls-1" d="M24.46,95.5H3.8L94,4.5h20.9ZM6.2,94.5H24l88.46-89H94.42Z"/><path class="cls-1" d="M34.87,0H6.27L0,6.27V35.53l6.27,6.28h28.6l6.27-6.28V6.27ZM31.52,13.14V29l-3.4,3.41H12.61L9.21,29V13.09l3.4-3.4H28.12l3.4,3.4Z"/><path class="cls-1" d="M102.55,49h-28l-6.15,6.15v28.7L74.5,90h28.05l6.15-6.15V55.15ZM99.26,61.88V77.41l-3.33,3.33H80.71l-3.33-3.33V61.84l3.33-3.34H95.93l3.33,3.34Z"/><polygon class="cls-1" points="108.7 0 19.25 90 0 90 89.21 0 108.7 0"/></g></g></svg>