<svg xmlns="http://www.w3.org/2000/svg" xmlns:xlink="http://www.w3.org/1999/xlink" viewBox="0 0 20.18 24.1">
  <path fill="#bf55ec" d="M10.09,24.1l-.7-.6C8.43,22.69,0,15.41,0,10.09a10.09,10.09,0,0,1,20.18,0c0,5.32-8.42,12.6-9.39,13.41Zm0-21.92a7.92,7.92,0,0,0-7.91,7.91c0,3.34,5.19,8.69,7.91,11.13C12.82,18.78,18,13.43,18,10.09a7.92,7.92,0,0,0-7.91-7.91" transform="translate(0 0)"/>
  <path fill="#bf55ec" d="M10.09,14.09a4,4,0,1,1,4-4,4,4,0,0,1-4,4m0-6a2,2,0,1,0,2,2,2,2,0,0,0-2-2" transform="translate(0 0)"/>
</svg>