<svg xmlns="http://www.w3.org/2000/svg" xmlns:xlink="http://www.w3.org/1999/xlink" viewBox="0 0 18 24">
<path fill="#bf55ec" d="M18,6.24a4,4,0,0,0-1.17-2.83L14.59,1.17A4,4,0,0,0,11.76,0H3A3,3,0,0,0,0,3V24H18ZM15.41,4.83a1.15,1.15,0,0,1,.14.17H13V2.44l.17.15ZM2,22V3A1,1,0,0,1,3,2h8V7h5V22ZM5,9h8v2H5Zm0,4h8v2H5Zm6,3.81,2,.37C12.79,18.23,12,20,10.13,20a3.12,3.12,0,0,1-2-.71c-.32-.22-.42-.29-.66-.29a2.17,2.17,0,0,0-.92.66l-1.5-1.32A3.74,3.74,0,0,1,7.49,17a3,3,0,0,1,1.82.66,1.17,1.17,0,0,0,.82.34c.63,0,.88-1.17.89-1.19" transform="translate(0 0)"/>
</svg>