
<svg xmlns="http://www.w3.org/2000/svg" viewBox="0 0 410.23 512"><defs><style>.cls-1{fill:#09888f;}</style></defs><g id="Слой_2" data-name="Слой 2"><g id="Capa_1" data-name="Capa 1"><path class="cls-1" d="M205.12,110.06a95.06,95.06,0,1,0,95.05,95.05A95.16,95.16,0,0,0,205.12,110.06Zm0,150.09a55,55,0,1,1,55-55A55.1,55.1,0,0,1,205.12,260.15Z"/><path class="cls-1" d="M205.12,0C92,0,0,92,0,205.12v5.67C0,268,32.79,334.64,97.47,408.9c46.89,53.83,93.12,91.37,95.07,92.94L205.12,512l12.57-10.16c1.95-1.57,48.18-39.11,95.07-92.94,64.68-74.26,97.47-140.91,97.47-198.11v-5.67C410.23,92,318.22,0,205.12,0ZM370.21,210.79c0,96.66-124.55,213.68-165.1,249.2C164.56,424.45,40,307.44,40,210.79v-5.67c0-91,74.06-165.1,165.1-165.1s165.09,74.06,165.09,165.1v5.67Z"/></g></g></svg>