<svg xmlns="http://www.w3.org/2000/svg" xmlns:xlink="http://www.w3.org/1999/xlink" viewBox="0 0 477.88 477.88">
  <defs>
    <style>
      .cls-1 {
        fill: none;
      }

      .cls-2 {
        clip-path: url(#clip-path);
      }

      .cls-3 {
        fill: #0a898f;
      }
    </style>
    <clipPath id="clip-path" transform="translate(0 0)">
      <rect class="cls-1" width="477.88" height="477.88"/>
    </clipPath>
  </defs>
  <g id="Слой_2" data-name="Слой 2">
    <g id="Слой_1-2" data-name="Слой 1">
      <g class="cls-2">
        <path class="cls-3" d="M468.45,1.81a17.05,17.05,0,0,0-15.28,0L9.43,223.67A17.08,17.08,0,0,0,14,255.73l176.12,32,32,176.11a17.06,17.06,0,0,0,14.35,13.84,16.55,16.55,0,0,0,2.43.17,17.05,17.05,0,0,0,15.27-9.44L476.07,24.71a17.06,17.06,0,0,0-7.62-22.9M246.56,407.38,221.57,270a17.07,17.07,0,0,0-13.65-13.66L70.5,231.32,422.63,55.24Z" transform="translate(0 0)"/>
      </g>
    </g>
  </g>
</svg>
