<svg xmlns="http://www.w3.org/2000/svg" viewBox="0 0 251.65 235.96">
  <g id="Слой_2" data-name="Слой 2">
    <g id="Слой_1-2" data-name="Слой 1">
      <path fill="#00ffff" d="M251.65,175c-1.93,4.46-5.32,6-10.14,6q-88.32-.15-176.64-.07a17.71,17.71,0,0,1-3.18-.14c-5.72-1-8.36-7.34-5.09-12.39,4.13-6.39,8.48-12.64,12.59-19a5.91,5.91,0,0,0,.76-3.82q-6.63-40.7-13.44-81.36c-2.67-16-5.35-32.09-8.08-48.46H45.25c-12.37,0-24.73.06-37.1,0A7.93,7.93,0,0,1,0,8.7,7.86,7.86,0,0,1,6,.25,11.34,11.34,0,0,1,8.69,0Q28.22,0,47.76,0c8.68,0,14.79,5,16.24,13.66q6.44,38,12.68,76c3.18,19.13,6.31,38.26,9.55,57.38a9.71,9.71,0,0,1-1.5,7.46c-2.28,3.37-4.51,6.79-7.07,10.64h3.18q80.34,0,160.67,0c4.82,0,8.22,1.48,10.14,6Z"/>
      <path fill="#00ffff"  d="M251.65,41.3c-1.63,6.14-3.28,12.28-4.87,18.43-1.05,4-2,8.1-3,12.15-1.14,4.51-4,6.77-8.66,6.77q-46.44,0-92.89,0c-5,0-8.5-3.32-8.51-7.89s3.56-7.83,8.55-7.83h87.52c1.32-5.27,2.58-10.32,3.93-15.72H88.3A16.91,16.91,0,0,1,84.88,47a7.89,7.89,0,0,1-6.2-8.53,7.77,7.77,0,0,1,7.87-7c13.27-.06,26.54,0,39.81,0,38.34,0,76.67.06,115-.06,5,0,8.53,1.62,10.28,6.46Z"/>
      <path fill="#00ffff" d="M214.05,125.84c2.76-11.07,5.46-21.93,8.19-32.77,1-3.94,4-6.43,7.61-6.5a7.75,7.75,0,0,1,7.73,6,8.35,8.35,0,0,1,0,3.85q-4.74,19.42-9.65,38.8a7.84,7.84,0,0,1-8.2,6.38q-58.58,0-117.17,0a7.88,7.88,0,0,1-8.19-8c.05-4.47,3.54-7.76,8.37-7.76q54.29,0,108.57,0Z"/>
      <path fill="#00ffff" d="M86.51,212.32A23.59,23.59,0,1,1,110.05,236,23.57,23.57,0,0,1,86.51,212.32Zm23.56-7.8a7.85,7.85,0,1,0,7.87,7.75A7.87,7.87,0,0,0,110.07,204.52Z"/>
      <path fill="#00ffff" d="M188.74,212.45A23.59,23.59,0,1,1,212.41,236,23.62,23.62,0,0,1,188.74,212.45Zm31.44-.1a7.85,7.85,0,1,0-7.77,7.87A7.89,7.89,0,0,0,220.18,212.35Z"/>
      <path fill="#00ffff" d="M153.47,94.39q17.19,0,34.4,0c5.19,0,8.75,3.25,8.72,7.91s-3.6,7.81-8.83,7.82H119c-5.24,0-8.82-3.18-8.85-7.8s3.54-7.92,9-7.93Q136.26,94.38,153.47,94.39Z"/>
    </g>
  </g>
</svg>
