<svg xmlns="http://www.w3.org/2000/svg" xmlns:xlink="http://www.w3.org/1999/xlink" viewBox="0 0 24 24">
<path fill="#a9a9a9" d="M21,2H18V0H16V2H8V0H6V2H3A3,3,0,0,0,0,5V24H24V5a3,3,0,0,0-3-3M2,5A1,1,0,0,1,3,4H21a1,1,0,0,1,1,1V8H2Zm0,5H22V22H2Z"/>
<rect fill="#a9a9a9" x="15" y="13" width="2" height="2"/>
<rect fill="#a9a9a9" x="11" y="13" width="2" height="2"/>
<rect fill="#a9a9a9" x="7" y="13" width="2" height="2"/>
<rect fill="#a9a9a9" x="15" y="17" width="2" height="2"/>
<rect fill="#a9a9a9" x="11" y="17" width="2" height="2"/>
<rect fill="#a9a9a9" x="7" y="17" width="2" height="2"/>
</svg>
