<svg xmlns="http://www.w3.org/2000/svg" viewBox="0 0 420.48 87.23">
    <defs>
        <style>.cls-1{fill:#bc1ddd;}.cls-2{fill:#37e2d9;}</style>
    </defs>
    <g id="Слой_2" data-name="Слой 2">
        <g id="Слой_1-2" data-name="Слой 1">
            <polygon class="cls-1"
                     points="80.64 28.78 80.64 28.78 77.12 28.78 73.22 32.57 73.22 33.03 73.22 59.39 72.76 59.39 74.63 61.27 75.1 61.27 75.39 61.27 78.68 61.27 79.15 61.27 82.99 57.48 82.99 31.66 82.99 31.12 80.64 28.78"/>
            <polygon class="cls-1"
                     points="216.31 35.88 216.31 35.9 208.94 28.78 181.5 28.78 177.6 32.57 177.6 33.03 177.6 58.92 177.13 58.92 179.01 61.27 179.48 61.27 183.06 61.27 183.53 61.27 187.37 57.48 187.37 38.33 206.8 38.33 209.28 40.54 204.89 44.03 189.33 44.03 189.33 44.5 189.33 51.34 188.86 51.34 190.74 53.69 191.21 53.69 198.14 53.69 204.47 61.27 204.59 61.27 204.85 61.27 214.34 61.27 214.39 61.27 208.17 53.69 208.95 53.69 210.35 53.69 210.82 53.69 218.65 46.01 218.65 38.23 216.31 35.88"/>
            <polygon class="cls-1"
                     points="170.39 51.71 144.08 51.71 142.54 49.8 164.49 49.8 164.96 49.8 164.96 42.58 164.96 42.54 162.61 40.19 162.61 40.19 145.54 40.19 147.42 38.33 172.27 38.33 172.74 38.33 172.74 34.77 166.5 28.78 166.5 28.78 141.45 28.78 133.72 36.35 133.72 36.82 133.72 51.81 133.68 52.24 134.15 52.7 134.32 52.86 134.61 53.15 134.65 53.19 135.16 53.69 140.98 59.39 140.98 59.39 142.89 61.27 143.32 61.27 168.38 61.27 168.85 61.27 172.74 57.53 172.74 54.06 170.39 51.71"/>
            <polygon class="cls-1"
                     points="66.06 28.31 66.02 28.78 58.65 28.78 46.82 40.19 37.08 40.19 37.08 34.44 36.61 33.98 36.61 33.97 36.14 33.51 36.14 33.51 35.67 33.04 35.67 33.03 35.2 32.57 35.2 32.57 31.36 28.78 27.31 28.78 27.31 29.25 27.31 55.59 27.76 56.02 28.07 56.33 28.31 56.56 28.61 56.85 28.87 57.1 29.28 57.5 30.73 58.92 33.15 61.27 36.61 61.27 37.08 61.27 37.08 49.85 48.87 49.85 58.18 58.92 58.18 58.92 60.59 61.27 67.94 61.27 68.41 61.27 68.41 53.59 66.06 51.24 66.06 51.71 62.49 51.71 56.65 45.95 64.31 38.33 67.94 38.33 68.41 38.33 68.41 31.39 68.41 30.66 66.06 28.31"/>
            <path class="cls-1"
                  d="M127,46.44h0l1.91-1.65V38.72l-10.13-9.94h-27l-3.9,3.79V56.06l5.36,5.21h27.91l7.78-7.58V48.14ZM101,49.8h16.09l-1.94,1.91H97.62V38.33h18.93l1.89,1.86H99.58v7.73h-.47Z"/>
            <polygon class="cls-1"
                     points="256.25 40.19 256.25 40.19 235.26 40.19 237.17 38.33 262.02 38.33 262.49 38.33 262.49 34.93 256.25 28.78 256.25 28.78 231.25 28.78 223.47 36.35 223.47 36.82 223.47 44.13 223.36 44.49 223.83 44.95 223.94 45.06 224.42 45.52 224.42 45.52 224.43 45.53 228.82 49.8 229.23 49.8 250.72 49.8 248.78 51.71 223.47 51.71 223.47 52.18 223.47 55.6 223.33 55.93 223.78 56.36 224.37 56.94 224.47 57.03 224.87 57.43 225.66 58.19 228.82 61.27 229.23 61.27 254.24 61.27 254.71 61.27 262.49 53.69 262.49 46.26 256.25 40.19"/>
            <polygon class="cls-1"
                     points="391.29 36.35 383.46 28.78 383.46 28.78 383.46 28.78 356.48 28.78 352.59 32.57 352.59 33.03 352.59 59.39 352.12 59.39 354 61.27 354.47 61.27 358.05 61.27 358.51 61.27 362.35 57.48 362.35 38.33 381.9 38.33 383.82 40.84 383.82 55.6 383.71 55.95 383.97 56.2 384.13 56.35 384.55 56.76 385.07 57.27 385.67 57.86 387.25 59.39 387.25 59.39 389.17 61.27 389.59 61.27 393.17 61.27 393.64 61.27 393.64 38.7 391.29 36.35"/>
            <polygon class="cls-2"
                     points="26.84 55.13 26.84 28.31 30.89 28.31 34.73 32.1 34.73 39.72 46.35 39.72 58.18 28.31 66.06 28.31 66.06 35.99 61.97 35.99 54.29 43.61 62.02 51.24 66.06 51.24 66.06 58.92 58.18 58.92 46.45 47.51 34.73 47.51 34.73 58.92 30.73 58.92 26.84 55.13"/>
            <polygon class="cls-1"
                     points="297.86 51.71 297.86 51.71 276.96 51.71 276.96 34.91 270.83 28.78 267.3 28.78 267.3 29.25 267.3 55.6 267.3 56.06 267.54 56.3 267.54 56.3 267.77 56.53 268.03 56.78 268.27 57.01 268.46 57.21 268.91 57.65 270.67 59.39 270.67 59.39 272.57 61.27 273.02 61.27 303.57 61.27 304.04 61.27 304.04 57.73 297.86 51.71"/>
            <polygon class="cls-2"
                     points="181.03 28.31 208.47 28.31 216.31 35.88 216.31 43.67 208.47 51.34 206.24 51.34 212.47 58.92 202.5 58.92 196.18 51.34 188.86 51.34 188.86 43.56 204.42 43.56 208.31 39.83 204.42 35.99 185.02 35.99 185.02 55.13 181.18 58.92 177.13 58.92 177.13 32.1 181.03 28.31"/>
            <path class="cls-1"
                  d="M337.6,28.78H314.3l-7.73,7.57V51.81l-.22.25,0,0,.6.58.49.48.26.25,4.9,4.8,1.19,1.17h0l1.91,1.88h24.19l7.79-7.58v-15Zm.31,19L334,51.71l-15.51.57-2.12-1.82V42.23l4-3.9h15.05l2.53,2.51Z"/>
            <polygon class="cls-2"
                     points="76.65 28.78 80.64 28.78 80.64 55.6 76.8 59.39 72.76 59.39 72.76 32.57 76.65 28.78"/>
            <polygon class="cls-2"
                     points="141.29 40.19 162.61 40.19 162.61 47.92 141.24 47.92 145.07 51.71 170.39 51.71 170.39 55.65 166.5 59.39 140.98 59.39 133.25 51.81 133.25 36.35 140.98 28.78 166.5 28.78 170.39 32.51 170.39 36.46 145.07 36.46 141.29 40.19"/>
            <polygon class="cls-2"
                     points="230.99 40.19 256.25 40.19 260.14 43.98 260.14 51.81 252.36 59.39 226.89 59.39 223 55.6 223 51.71 248.31 51.71 252.15 47.92 226.89 47.92 223 44.13 223 36.35 230.78 28.78 256.25 28.78 260.14 32.57 260.14 36.46 234.82 36.46 230.99 40.19"/>
            <polygon class="cls-2"
                     points="266.83 28.78 270.83 28.78 274.62 32.57 274.62 51.71 297.86 51.71 301.7 55.45 301.7 59.39 270.67 59.39 266.83 55.6 266.83 28.78"/>
            <polygon class="cls-2"
                     points="391.29 59.39 387.25 59.39 383.35 55.6 383.35 40.35 379.41 36.46 360.01 36.46 360.01 55.6 356.17 59.39 352.12 59.39 352.12 32.57 356.01 28.78 383.46 28.78 391.29 36.35 391.29 59.39"/>
            <path class="cls-2"
                  d="M126.56,36.35l-7.79-7.57H91.28l-3.89,3.79v23l3.89,3.79h27.49l7.79-7.58v-6l-1.92-1.72,1.92-1.71ZM114.67,51.71H95.27V36.46h19.4l3.79,3.73H99.11v7.73h19.4Z"/>
            <path class="cls-2"
                  d="M337.6,28.78H313.84l-7.73,7.57V51.81l7.73,7.58H337.6l7.78-7.58V36.35Zm-.16,19-3.94,3.89H318l-4-3.89V40.35l4-3.89H333.5l3.94,3.89Z"/>
            <path class="cls-1"
                  d="M398.25,0a3,3,0,1,0,0,6,16.24,16.24,0,0,1,16.22,16.22V65a16.24,16.24,0,0,1-16.22,16.22,3,3,0,1,0,0,6A22.26,22.26,0,0,0,420.48,65V22.23A22.25,22.25,0,0,0,398.25,0Z"/>
            <path class="cls-1"
                  d="M22.23,6a3,3,0,1,0,0-6A22.25,22.25,0,0,0,0,22.23V65A22.26,22.26,0,0,0,22.23,87.23a3,3,0,1,0,0-6A16.24,16.24,0,0,1,6,65V22.23A16.24,16.24,0,0,1,22.23,6Z"/>
            <path class="cls-1" d="M387,81.22H33.5a3,3,0,1,0,0,6H387a3,3,0,1,0,0-6Z"/>
            <path class="cls-1" d="M33.5,6H387a3,3,0,1,0,0-6H33.5a3,3,0,1,0,0,6Z"/>
        </g>
    </g>
</svg>