<svg xmlns="http://www.w3.org/2000/svg" >
    <symbol id="cabinet" viewBox="0 0 105.25 104.91">
      <g>
        <path  d="M58.63,0V5.85A47,47,0,0,1,96.22,70l4.87,2.81A52.66,52.66,0,0,0,58.63,0Z"/>
        <path d="M46.63,5.85V0A52.64,52.64,0,0,0,4.17,72.83L9,70A47,47,0,0,1,46.63,5.85Z"/>
        <path  d="M84.75,86.75V84.58A32.15,32.15,0,0,0,63.13,54.21a18.58,18.58,0,1,0-21,0A32.15,32.15,0,0,0,20.5,84.58v2.17a47,47,0,0,1-5.6-6.27l-4.82,2.78a52.63,52.63,0,0,0,85.09,0l-4.81-2.78A47.76,47.76,0,0,1,84.75,86.75ZM39.07,38.9A13.56,13.56,0,1,1,52.62,52.46,13.57,13.57,0,0,1,39.07,38.9ZM52.62,99.46a46.74,46.74,0,0,1-27.07-8.61l0-6.27a27.11,27.11,0,1,1,54.21,0l.16,6.14A46.76,46.76,0,0,1,52.62,99.46Z"/>
      </g>
   </symbol>
</svg>