<svg xmlns="http://www.w3.org/2000/svg" viewBox="0 0 48 47.85">
  <defs>
    <style>
      .cls-1 {
        fill: aqua;
      }
    </style>
  </defs>
  <g id="Слой_2" data-name="Слой 2">
    <g id="Capa_1" data-name="Capa 1">
      <g>
        <path class="cls-1" d="M30.61,16a1.17,1.17,0,0,0-1.66.23l-1.44,1.75-4.75,5.73C21,25.85,19.12,28,17.32,30.22a3.89,3.89,0,0,0-.39.76,1.21,1.21,0,0,0,.89,1.13,1.19,1.19,0,0,0,1.27-.51l5.13-6.18,5.89-7.08c.2-.25.4-.49.59-.74A1.14,1.14,0,0,0,30.61,16Z"/>
        <path class="cls-1" d="M30.13,23.19a4.51,4.51,0,1,0,4.31,4.69A4.54,4.54,0,0,0,30.13,23.19Zm-.23,6.33A1.83,1.83,0,0,1,30,25.87a1.83,1.83,0,1,1-.05,3.65Z"/>
        <path class="cls-1" d="M13.56,20.14A4.55,4.55,0,0,0,18,24.64a4.51,4.51,0,1,0-4.45-4.5Zm6.34.05a1.82,1.82,0,1,1-1.78-1.89A1.81,1.81,0,0,1,19.9,20.19Z"/>
        <path class="cls-1" d="M26.74,0V5.52A18.56,18.56,0,0,1,42.53,23.85a18.33,18.33,0,0,1-1.22,6.6l4.79,2.76A23.72,23.72,0,0,0,48,23.85,24,24,0,0,0,26.74,0Z"/>
        <path class="cls-1" d="M5.47,23.85A18.56,18.56,0,0,1,21.27,5.52V0A24,24,0,0,0,1.9,33.21l4.79-2.76A18.33,18.33,0,0,1,5.47,23.85Z"/>
        <path class="cls-1" d="M9.38,35.21,4.6,38a24,24,0,0,0,38.8,0l-4.78-2.76a18.51,18.51,0,0,1-29.24,0Z"/>
      </g>
    </g>
  </g>
</svg>
