<svg xmlns="http://www.w3.org/2000/svg" xmlns:xlink="http://www.w3.org/1999/xlink" viewBox="0 0 620.08 618.08"><defs><style>.cls-1{fill:url(#Безымянный_градиент_6);}.cls-2{fill:url(#Безымянный_градиент_6-2);}.cls-3{fill:url(#Безымянный_градиент_6-3);}.cls-4{fill:url(#Безымянный_градиент_6-4);}.cls-5{fill:url(#Безымянный_градиент_6-5);}.cls-6{fill:url(#Безымянный_градиент_6-6);}</style><linearGradient id="Безымянный_градиент_6" x1="309.59" y1="-29.32" x2="309.59" y2="623.86" gradientUnits="userSpaceOnUse"><stop offset="0" stop-color="aqua"/><stop offset="1" stop-color="#0a898f"/></linearGradient><linearGradient id="Безымянный_градиент_6-2" x1="386.67" y1="-29.32" x2="386.67" y2="623.86" xlink:href="#Безымянный_градиент_6"/><linearGradient id="Безымянный_градиент_6-3" x1="233.43" y1="-29.32" x2="233.43" y2="623.86" xlink:href="#Безымянный_градиент_6"/><linearGradient id="Безымянный_градиент_6-4" x1="482.75" y1="-29.32" x2="482.75" y2="623.86" xlink:href="#Безымянный_градиент_6"/><linearGradient id="Безымянный_градиент_6-5" x1="137.36" y1="-29.32" x2="137.36" y2="623.86" xlink:href="#Безымянный_градиент_6"/><linearGradient id="Безымянный_градиент_6-6" x1="310.04" y1="-29.32" x2="310.04" y2="623.86" xlink:href="#Безымянный_градиент_6"/></defs><g id="Слой_2" data-name="Слой 2"><g id="Capa_1" data-name="Capa 1"><path class="cls-1" d="M395.41,206.24c-6.33-5.3-15.46-4.13-21.37,2.91-6.29,7.48-12.42,15.1-18.65,22.63q-30.67,37-61.37,74c-23.43,28.19-47,56.3-70.3,84.58-2.29,2.78-3.39,6.53-5.05,9.83,1,7.66,4.66,12.67,11.58,14.53s12-1.34,16.32-6.51q33.15-40,66.36-79.91,38-45.74,76-91.45c2.6-3.13,5.18-6.29,7.69-9.5C402.22,220.25,401.68,211.48,395.41,206.24Z"/><path class="cls-2" d="M389.24,299.6c-31.1-1.66-58.86,23.39-60.78,54.24-2.06,33,23.94,61.55,56.46,62.2,31.23,1.54,58.77-23.8,60-55.84A58.35,58.35,0,0,0,389.24,299.6Zm-2.95,81.73c-13.22-.29-23.39-10.6-23.18-23.49.23-13.63,10.63-24,23.83-23.7,13.5.27,23.45,10.91,23.17,24.77C409.85,371.37,399,381.6,386.29,381.33Z"/><path class="cls-3" d="M175.13,260.23c0,31.35,26.53,58.1,57.56,58.1,32.86,0,59-25.76,59-58.09a58.3,58.3,0,1,0-116.6,0Zm82,.6c-.48,12.8-11.2,23.19-23.53,22.79-13.91-.45-24.06-11.21-23.53-24.95.49-12.47,11.43-22.63,24.05-22.32A23.35,23.35,0,0,1,257.09,260.83Z"/><path class="cls-4" d="M345.42,0V71.35c115.23,17.08,204,116.77,204,236.72a236.71,236.71,0,0,1-15.73,85.25l61.92,35.76a308.8,308.8,0,0,0,24.51-121C620.08,148.76,500,17.56,345.42,0Z"/><path class="cls-5" d="M70.7,308.07c0-119.95,88.72-219.64,204-236.72V0C120.07,17.56,0,148.76,0,308.07a307.77,307.77,0,0,0,24.57,121l61.86-35.76A236.71,236.71,0,0,1,70.7,308.07Z"/><path class="cls-6" d="M121.19,454.88l-61.8,35.65C115.77,567.82,207,618.08,310.07,618.08s194.24-50.26,250.62-127.55L499,454.88a239.09,239.09,0,0,1-377.76,0Z"/></g></g></svg>