<svg xmlns="http://www.w3.org/2000/svg" viewBox="0 0 33.3 48">
  <defs>
    <style>
      .cls-1 {
        fill: aqua;
      }
    </style>
  </defs>
  <g id="Слой_2" data-name="Слой 2">
    <g id="Capa_1" data-name="Capa 1">
      <g>
        <path class="cls-1" d="M7,34.19v-.36a4.59,4.59,0,0,0-.7-2.63,1.54,1.54,0,0,0-1-.52,1.66,1.66,0,0,0-.49.11L3.7,25.43h.68a.88.88,0,1,0,0-1.76H.88a.88.88,0,0,0,0,1.76h1l1.6,8C3.66,35.85,5.15,36,7.37,37A9.73,9.73,0,0,1,7,34.19Z"/>
        <path class="cls-1" d="M32.42,23.67h-3.5a.88.88,0,1,0,0,1.76h.68l-1.07,5.36a1.66,1.66,0,0,0-.49-.11A1.54,1.54,0,0,0,27,31.2a4.59,4.59,0,0,0-.7,2.63v.36A9.73,9.73,0,0,1,25.93,37c2.22-1,3.7-1.17,3.86-3.6l1.6-8h1a.88.88,0,1,0,0-1.76Z"/>
        <path class="cls-1" d="M8.81,34.09a26.37,26.37,0,0,0,.29,2.66.87.87,0,0,0,.86.71H23.34a.87.87,0,0,0,.87-.72h0c.13-.88.23-1.76.28-2.65h0v-1h0v-.68a.88.88,0,0,0-.88-.88h-14a.88.88,0,0,0-.88.88v.68h0v1Z"/>
        <path class="cls-1" d="M25.86,44.89v-.45A2.5,2.5,0,0,0,23.36,42H18.11v-2.5H15.19V42H9.94a2.5,2.5,0,0,0-2.5,2.49v.45a1.67,1.67,0,1,0,1.66,0v-.45a.84.84,0,0,1,.84-.83h5.88v1.28a1.66,1.66,0,1,0,1.66,0V43.61h5.88a.84.84,0,0,1,.84.83v.45a1.66,1.66,0,1,0,1.66,0Z"/>
        <path class="cls-1" d="M26.48,24.24a2.62,2.62,0,0,0-.11-.75c-.44-1.5-1-3-1.55-4.45a7.28,7.28,0,0,1-.09-5.16c.44-1.31.83-2.64,1.19-4a3.17,3.17,0,0,0-1.65-3.84c-.19-.11-.36-.25-.56-.36A7.43,7.43,0,0,1,20.85,3a5.25,5.25,0,0,0-.33-.49A5.69,5.69,0,0,0,17.45.13c-.07,0-.12-.09-.17-.13H16.06a1.43,1.43,0,0,1-.27.15,5,5,0,0,0-2.44,1.63,18.06,18.06,0,0,0-1.21,1.66,6.62,6.62,0,0,1-2,1.94c-.48.3-1,.61-1.42.92a2.94,2.94,0,0,0-1.4,3.28c.34,1.4.75,2.79,1.22,4.16a7.44,7.44,0,0,1-.12,5.47c-.39,1-.75,1.93-1.11,2.9A5.57,5.57,0,0,0,7,23.52a4.55,4.55,0,0,0-.19,1.33,5.11,5.11,0,0,0,1.83,3.84,7.71,7.71,0,0,0,.7,1.13l.08.1a.87.87,0,0,1,.64-.26H23.27A.88.88,0,0,1,24,30c.18-.37.31-.72.46-1a5.18,5.18,0,0,0,2.1-4.07A4.08,4.08,0,0,0,26.48,24.24ZM15.63,10.65c0,.64-.45,1-1.2,1h-3c-.6,0-.91-.28-.94-.8,0,0,0-.1,0-.14-.23-1.26.32-2.11,1.67-2.66a25.38,25.38,0,0,0,2.3-1.23c.64-.32,1.16-.08,1.18.55s0,1.12,0,1.68S15.65,10.12,15.63,10.65Zm7.23.15c0,.57-.33.85-1,.86h-3a1.07,1.07,0,0,1-1.19-1V9c0-.52,0-1,0-1.57,0-.69.55-.94,1.24-.57C20,7.41,21,8,22.05,8.54a1.37,1.37,0,0,1,.82,1.27C22.86,10.14,22.88,10.47,22.86,10.8Z"/>
      </g>
    </g>
  </g>
</svg>
