<svg xmlns="http://www.w3.org/2000/svg" viewBox="0 0 35.96 48">
  <defs>
    <style>
      .cls-1 {
        fill: aqua;
      }
    </style>
  </defs>
  <g id="Слой_2" data-name="Слой 2">
    <g id="Capa_1" data-name="Capa 1">
      <g>
        <path class="cls-1" d="M22.49,0l8,3.56c.63.28,1.26.55,1.88.84a1.46,1.46,0,0,1,1,1.29c0,1.51,0,3,0,4.58l-.5,0H28.48c-.68,0-1.05.31-1,.85s.37.85,1,.85h4.85c0,.06.07.09.07.12,0,1.74,0,3.5-.16,5.23a10.24,10.24,0,0,1-.78,2.73c-.81,2.06-1.71,4.09-2.52,6.14a12.16,12.16,0,0,0-.81,4.58c0,2.82,0,5.63,0,8.44,0,.64.31,1,.83,1s.87-.39.87-1c0-2.78,0-5.56,0-8.34,0-1,.18-2.06.28-3.08h.18l.19.34c1.39,2.8,2.76,5.6,4.17,8.38a2,2,0,0,1-.21,2.3A21.9,21.9,0,0,1,24.24,47c-7.42,2.2-14.13.71-20-4.26a22.85,22.85,0,0,1-3.8-4.12,1.67,1.67,0,0,1-.2-1.85L4.57,28c0-.07.08-.12.15-.24a10.43,10.43,0,0,1,.43,3.14V39a3.65,3.65,0,0,0,0,.47.84.84,0,0,0,1.68,0,2.72,2.72,0,0,0,0-.28V30.61a13.58,13.58,0,0,0-1.18-5.36c-.74-1.72-1.44-3.45-2.16-5.18a10.44,10.44,0,0,1-.91-3.89c0-1.37,0-2.75,0-4.16l.51,0H7.59c.62,0,1-.36,1-.9s-.36-.79-1-.8h-5V9.62c0-1.13,0-2.25,0-3.38a1.89,1.89,0,0,1,1.27-2C7,2.89,10.2,1.48,13.38.08L13.5,0H14a1.09,1.09,0,0,1,.6,1.11c0,.41,0,.81,0,1.22A3.49,3.49,0,0,1,13.49,5,4.93,4.93,0,0,0,12,8.74c0,1.32,0,2.65,0,4a5,5,0,0,0,1.47,3.67,3.62,3.62,0,0,1,1.1,2.78c0,2.36,0,4.71,0,7.07a15.63,15.63,0,0,0,0,1.68,3.4,3.4,0,0,0,4,2.86,3.44,3.44,0,0,0,2.83-3.56c0-2.6,0-5.21,0-7.82a4,4,0,0,1,1.23-3.15A4.6,4.6,0,0,0,24,13q0-2.25,0-4.5a4.45,4.45,0,0,0-1.3-3.21A3.94,3.94,0,0,1,21.42,2a3.57,3.57,0,0,0,0-.8A1.1,1.1,0,0,1,22,0ZM18,39.42a3.43,3.43,0,1,0,3.45,3.39A3.42,3.42,0,0,0,18,39.42Zm0-1.73c.57,0,1.15,0,1.73,0a.81.81,0,0,0,.87-.83A.82.82,0,0,0,19.7,36c-1.14,0-2.27,0-3.41,0a.82.82,0,0,0-.85.86.81.81,0,0,0,.87.83C16.86,37.7,17.4,37.69,18,37.69Z"/>
        <rect class="cls-1" x="16.06" y="6.26" width="3.84" height="8.74" rx="0.22"/>
      </g>
    </g>
  </g>
</svg>
