<svg xmlns="http://www.w3.org/2000/svg" xmlns:xlink="http://www.w3.org/1999/xlink" viewBox="0 0 383.02 511.31"><defs><style>.cls-1{fill:url(#Безымянный_градиент_5);}.cls-2{fill:url(#Безымянный_градиент_5-2);}</style><linearGradient id="Безымянный_градиент_5" x1="191.51" x2="191.51" y2="511.31" gradientUnits="userSpaceOnUse"><stop offset="0" stop-color="aqua"/><stop offset="1" stop-color="#0a898f"/></linearGradient><linearGradient id="Безымянный_градиент_5-2" x1="191.51" y1="-46.82" x2="191.51" y2="447.33" xlink:href="#Безымянный_градиент_5"/></defs><g id="Слой_2" data-name="Слой 2"><g id="Capa_1" data-name="Capa 1"><path class="cls-1" d="M239.62,0l85.61,38c6.68,3,13.38,5.87,20,8.95,5.82,2.71,10.1,7.25,10.27,13.69.44,16.08.15,32.18.15,48.79-1.81.08-3.57.23-5.32.24-15.64,0-31.28,0-46.92,0-7.3,0-11.19,3.23-11.15,9.08s4,9.05,11.26,9.06c17.29,0,34.58,0,51.67,0,.36.62.68.91.67,1.19-.42,18.6,0,37.27-1.67,55.77-.89,9.87-4.65,19.69-8.32,29.06-8.6,22-18.15,43.53-26.88,65.43-6.21,15.61-8.63,32-8.59,48.81.08,30,0,59.89,0,89.83,0,6.8,3.3,10.91,8.8,11.1s9.31-4.12,9.32-11.09c0-29.61-.27-59.22.15-88.82.16-11,2-21.91,3-32.86l1.86-.07c.69,1.23,1.45,2.42,2.08,3.68,14.79,29.75,29.42,59.58,44.43,89.22,4.52,8.93,3.84,16.51-2.21,24.47C346.66,454.55,308,486,258.19,500.76c-79,23.47-150.46,7.55-213.59-45.36A243.89,243.89,0,0,1,4.11,411.48c-4.5-6.2-5.49-12.73-2-19.68q23.26-46.86,46.6-93.69c.34-.68.84-1.28,1.65-2.5a113.59,113.59,0,0,1,4.5,33.45q0,43.41,0,86.83a43.7,43.7,0,0,0,.1,5,9,9,0,0,0,17.93,0,23,23,0,0,0,.09-3q0-45.92,0-91.82c0-19.95-4.84-38.78-12.6-57s-15.32-36.79-23-55.17c-5.56-13.3-9.37-27.05-9.67-41.51-.3-14.61-.06-29.22-.06-44.32,1.85-.08,3.6-.22,5.35-.23,16,0,32,0,47.92,0,6.53,0,10.48-3.83,10.23-9.57-.24-5.32-3.92-8.51-10.19-8.53-15.8-.06-31.61,0-47.41,0H27.34v-7.19c0-12,.11-24-.1-35.92-.16-10.15,4.11-16.83,13.59-20.94,34-14.74,67.81-29.81,101.7-44.76A9.76,9.76,0,0,0,143.77,0h5c4.77,2.53,6.75,6.45,6.43,11.85-.26,4.31-.14,8.65,0,13,.35,11.27-3.51,20.71-11.54,28.67-11,10.85-16,24.17-15.87,39.56q.16,21.2,0,42.4c-.09,15.21,4.91,28.42,15.72,39.13,8.34,8.25,11.83,18,11.71,29.62-.25,25.1-.13,50.21-.09,75.32a159.6,159.6,0,0,0,.62,17.92c2.34,20,22.64,34.45,42.35,30.49,18.43-3.7,30-18.19,30.11-37.93.1-27.77.35-55.55-.11-83.31-.22-13.27,3.46-24.2,13-33.64s14.16-21.61,14.35-35.1q.35-23.94,0-47.89c-.19-13.12-4.45-25.08-13.81-34.29-10-9.82-14.62-21.09-13.46-34.94a52.07,52.07,0,0,0,0-8.47c-.46-5.53,1.48-9.69,6.41-12.36Zm-48.2,419.94a36.39,36.39,0,0,0-36.23,36.66c.24,20.11,16.86,36.5,36.78,36.28a36.47,36.47,0,1,0-.55-72.94Zm-.23-18.48c6.14,0,12.29.1,18.42,0,5.69-.13,9.26-3.65,9.32-8.86a8.79,8.79,0,0,0-9.07-9.18q-18.17-.24-36.34,0a8.77,8.77,0,0,0-9.06,9.18c.06,5.21,3.61,8.72,9.31,8.86S185.38,401.46,191.19,401.46Z"/><rect class="cls-2" x="171.08" y="66.73" width="40.86" height="93.15" rx="2.29"/></g></g></svg>