<svg xmlns="http://www.w3.org/2000/svg" viewBox="0 0 28.52 47.76">
  <defs>
    <style>
      .cls-1 {
        fill: aqua;
      }
    </style>
  </defs>
  <g id="Слой_2" data-name="Слой 2">
    <g id="Capa_1" data-name="Capa 1">
      <g>
        <rect class="cls-1" x="11.35" y="20.98" width="5.81" height="5.81"/>
        <path class="cls-1" d="M28.43,0H.09A.09.09,0,0,0,0,.09V47.67a.09.09,0,0,0,.09.09H28.43a.09.09,0,0,0,.09-.09V.09A.09.09,0,0,0,28.43,0ZM14.26,4.92A3.28,3.28,0,1,1,11,8.2,3.28,3.28,0,0,1,14.26,4.92ZM24.4,41a1.31,1.31,0,1,1-2.47.87l-4.4-12.47H11L6.59,41.88A1.31,1.31,0,0,1,4.12,41L8.73,27.92v-8L4.12,6.8a1.31,1.31,0,0,1,2.47-.88L11,18.36h6.58L21.93,5.92a1.31,1.31,0,0,1,2.47.88L19.79,19.89v8Z"/>
      </g>
    </g>
  </g>
</svg>
