<svg xmlns="http://www.w3.org/2000/svg" xmlns:xlink="http://www.w3.org/1999/xlink" viewBox="0 0 304.79 510.48"><defs><style>.cls-1{fill:url(#Безымянный_градиент_8);}.cls-2{fill:url(#Безымянный_градиент_8-2);}</style><linearGradient id="Безымянный_градиент_8" x1="152.4" y1="-2.34" x2="152.4" y2="482.43" gradientUnits="userSpaceOnUse"><stop offset="0" stop-color="aqua"/><stop offset="1" stop-color="#0a898f"/></linearGradient><linearGradient id="Безымянный_градиент_8-2" x1="152.4" y1="-2.34" x2="152.4" y2="482.43" xlink:href="#Безымянный_градиент_8"/></defs><g id="Слой_2" data-name="Слой 2"><g id="Capa_1" data-name="Capa 1"><rect class="cls-1" x="121.33" y="224.17" width="62.13" height="62.13"/><path class="cls-2" d="M303.79,0H1A1,1,0,0,0,0,1V509.48a1,1,0,0,0,1,1H303.79a1,1,0,0,0,1-1V1A1,1,0,0,0,303.79,0ZM152.4,52.6a35.07,35.07,0,1,1-35.07,35.06A35.1,35.1,0,0,1,152.4,52.6ZM260.79,438.3a14,14,0,1,1-26.41,9.31l-47-133.31h-70l-47,133.31A14,14,0,0,1,44,438.3L93.33,298.36V212.57L44,72.63a14,14,0,1,1,26.41-9.31l46.82,132.85h70.31L234.38,63.32a14,14,0,1,1,26.41,9.31L211.46,212.57v85.79Z"/></g></g></svg>