<svg xmlns="http://www.w3.org/2000/svg" xmlns:xlink="http://www.w3.org/1999/xlink" viewBox="0 0 511 510.83">
  <defs>
    <style>
      .cls-1 {
        fill: none;
      }

      .cls-2 {
        clip-path: url(#clip-path);
      }

      .cls-3 {
        fill: url(#Безымянный_градиент_8);
      }

      .cls-4 {
        clip-path: url(#clip-path-2);
      }

      .cls-5 {
        fill: url(#Безымянный_градиент_8-2);
      }

      .cls-6 {
        clip-path: url(#clip-path-3);
      }

      .cls-7 {
        fill: url(#Безымянный_градиент_8-3);
      }

      .cls-8 {
        clip-path: url(#clip-path-4);
      }

      .cls-9 {
        fill: url(#Безымянный_градиент_8-4);
      }

      .cls-10 {
        clip-path: url(#clip-path-5);
      }

      .cls-11 {
        fill: url(#Безымянный_градиент_8-5);
      }

      .cls-12 {
        clip-path: url(#clip-path-6);
      }

      .cls-13 {
        fill: url(#Безымянный_градиент_8-6);
      }

      .cls-14 {
        clip-path: url(#clip-path-7);
      }

      .cls-15 {
        fill: url(#Безымянный_градиент_8-7);
      }

      .cls-16 {
        clip-path: url(#clip-path-8);
      }

      .cls-17 {
        fill: url(#Безымянный_градиент_8-8);
      }
    </style>
    <clipPath id="clip-path" transform="translate(0 0)">
      <path class="cls-1" d="M116.54,4.18C83,12.46,49.54,20.88,16,29,8.74,30.69,3.1,33.79,0,40.74V280.28a28.26,28.26,0,0,0,2.75-2.72q57.74-74.46,115.33-149a13.47,13.47,0,0,0,2.6-7.62c.17-32.58.11-65.17.11-97.75V3.46c-1.71.29-3,.42-4.25.72"/>
    </clipPath>
    <linearGradient id="Безымянный_градиент_8" data-name="Безымянный градиент 8" y1="510.83" x2="1" y2="510.83" gradientTransform="matrix(0, 500.66, 500.66, 0, -255690.03, -3.2)" gradientUnits="userSpaceOnUse">
      <stop offset="0" stop-color="aqua"/>
      <stop offset="1" stop-color="#0a898f"/>
      <stop offset="1" stop-color="#0a898f"/>
    </linearGradient>
    <clipPath id="clip-path-2" transform="translate(0 0)">
      <path class="cls-1" d="M240.57,210.11q-.19-15.21,0-30.44c.12-8.56,6.57-15,14.73-15.13,8.4-.1,14.91,6.42,15.11,15.26.12,5,0,10,0,15,0,5.16.11,10.32,0,15.47-.22,8.57-6.59,15-14.76,15.13h-.2c-8.27,0-14.8-6.53-14.91-15.26m14.77-75.57a15,15,0,0,1-14.77-15.09c-.14-10-.16-20,0-29.94a14.91,14.91,0,0,1,29.81-.19c.19,5.15,0,10.32,0,15.47,0,4.82.11,9.65,0,14.47-.2,8.77-6.64,15.28-14.93,15.28h-.17M252.73,4.24Q202.81,68.41,153,132.67a11.76,11.76,0,0,0-2.18,6.75q-.21,63.38-.11,126.74c0,1.61.15,3.21.22,4.78H360a17.46,17.46,0,0,0,.23-1.82q0-65.37-.08-130.74a11.15,11.15,0,0,0-2.48-6.15Q318.49,81.53,279.08,31C271.36,21,263.61,11.13,255.63.9c-1.21,1.39-2.11,2.32-2.9,3.34"/>
    </clipPath>
    <linearGradient id="Безымянный_градиент_8-2" y1="510.83" x2="1" y2="510.83" gradientTransform="matrix(0, 500.66, 500.66, 0, -255494.94, -3.2)" xlink:href="#Безымянный_градиент_8"/>
    <clipPath id="clip-path-3" transform="translate(0 0)">
      <path class="cls-1" d="M390.26,5.4c0,38.9-.08,77.8.06,116.7a11,11,0,0,0,2.41,6.18q55.61,72,111.36,143.93c2,2.56,4,5.1,6.91,8.86v-130q0-52.36,0-104.74c0-9.1-4-14.28-12.82-16.48Q457.6,19.71,417,9.73c-8.76-2.17-17.53-4.31-26.43-6.49-.16,1.19-.29,1.67-.29,2.16"/>
    </clipPath>
    <linearGradient id="Безымянный_градиент_8-3" y1="510.83" x2="1" y2="510.83" gradientTransform="matrix(0, 500.66, 500.66, 0, -255299.81, -3.2)" xlink:href="#Безымянный_градиент_8"/>
    <clipPath id="clip-path-4" transform="translate(0 0)">
      <path class="cls-1" d="M24.07,299a12,12,0,0,0,2.19,0c30.1-7.47,60.18-15.05,90.32-22.35,3.63-.88,4.26-2.42,4.25-5.74-.11-30.73-.06-61.47-.07-92.2,0-1.08-.09-2.15-.19-4.47L24.07,299"/>
    </clipPath>
    <linearGradient id="Безымянный_градиент_8-4" y1="510.83" x2="1" y2="510.83" gradientTransform="matrix(0, 500.66, 500.66, 0, -255677.98, -3.2)" xlink:href="#Безымянный_градиент_8"/>
    <clipPath id="clip-path-5" transform="translate(0 0)">
      <path class="cls-1" d="M390.27,176.67c0,31.91,0,63.81-.09,95.72,0,2.94,1.45,3.46,3.8,4,13.22,3.18,26.41,6.53,39.61,9.8l53.77,13.28L390.86,174.7a9.68,9.68,0,0,0-.59,2"/>
    </clipPath>
    <linearGradient id="Безымянный_градиент_8-5" y1="510.83" x2="1" y2="510.83" gradientTransform="matrix(0, 500.66, 500.66, 0, -255311.66, -3.2)" xlink:href="#Безымянный_градиент_8"/>
    <clipPath id="clip-path-6" transform="translate(0 0)">
      <path class="cls-1" d="M292.91,0,360,86.26V0Z"/>
    </clipPath>
    <linearGradient id="Безымянный_градиент_8-6" y1="510.83" x2="1" y2="510.83" gradientTransform="matrix(0, 500.66, 500.66, 0, -255423.98, -3.2)" xlink:href="#Безымянный_градиент_8"/>
    <clipPath id="clip-path-7" transform="translate(0 0)">
      <path class="cls-1" d="M151,.18v86.2l67-86.2Z"/>
    </clipPath>
    <linearGradient id="Безымянный_градиент_8-7" y1="510.83" x2="1" y2="510.83" gradientTransform="matrix(0, 500.66, 500.66, 0, -255565.99, -3.2)" xlink:href="#Безымянный_градиент_8"/>
    <clipPath id="clip-path-8" transform="translate(0 0)">
      <path class="cls-1" d="M182.84,421.21h30.49c4.86,12,13,21,25.12,26.18a4,4,0,0,1,2,2.89c.15,9.44.09,18.89.09,28.34-24-.37-56.34-32.67-57.66-57.41m87.73,29.46a4.39,4.39,0,0,1,2.06-3.29,45.32,45.32,0,0,0,24.08-24,4,4,0,0,1,2.71-2.22c9.59-.17,19.19-.1,28.82-.1-1.72,25.21-31.38,55-57.76,57.84,0-9.61-.08-18.9.09-28.19M251.9,331.27c37-1.34,74.6,27.92,76.27,59.6h-20v.1H211a8.29,8.29,0,0,1-2.08.16c-8.62-.29-17.26-.1-25.88-.1-.57-27.38,35.52-58.55,68.87-59.76M236.17,303.1c-46,8.35-80.1,46.06-85.15,94.27-4.63,44.24,22.82,89,65.34,105.58,9.33,3.63,19.42,5.3,29.16,7.88h20a23.33,23.33,0,0,1,3.32-.9c49.63-6.19,88.73-47.95,91.38-97.62a104.83,104.83,0,0,0-104.63-111,109.19,109.19,0,0,0-19.38,1.75"/>
    </clipPath>
    <linearGradient id="Безымянный_градиент_8-8" y1="510.83" x2="1" y2="510.83" gradientTransform="matrix(0, 500.66, 500.66, 0, -255495, -3.2)" xlink:href="#Безымянный_градиент_8"/>
  </defs>
  <g id="Слой_2" data-name="Слой 2">
    <g id="Слой_1-2" data-name="Слой 1">
      <g class="cls-2">
        <rect class="cls-3" y="3.46" width="120.85" height="276.81"/>
      </g>
      <g class="cls-4">
        <rect class="cls-5" x="150.66" y="0.9" width="209.66" height="270.05"/>
      </g>
      <g class="cls-6">
        <rect class="cls-7" x="390.18" y="3.24" width="120.82" height="277.84"/>
      </g>
      <g class="cls-8">
        <rect class="cls-9" x="24.07" y="174.19" width="96.77" height="124.88"/>
      </g>
      <g class="cls-10">
        <rect class="cls-11" x="390.17" y="174.7" width="97.19" height="124.79"/>
      </g>
      <g class="cls-12">
        <rect class="cls-13" x="292.91" width="67.09" height="86.26"/>
      </g>
      <g class="cls-14">
        <rect class="cls-15" x="150.95" y="0.18" width="66.98" height="86.2"/>
      </g>
      <g class="cls-16">
        <rect class="cls-17" x="146.39" y="301.35" width="217.09" height="209.48"/>
      </g>
    </g>
  </g>
</svg>
