<svg xmlns="http://www.w3.org/2000/svg" xmlns:xlink="http://www.w3.org/1999/xlink" viewBox="0 0 513 512.57">
  <defs>
    <style>
      .cls-1 {
        fill: none;
      }

      .cls-2 {
        clip-path: url(#clip-path);
      }

      .cls-3 {
        fill: url(#Безымянный_градиент_17);
      }

      .cls-4 {
        clip-path: url(#clip-path-2);
      }

      .cls-5 {
        fill: url(#Безымянный_градиент_17-2);
      }

      .cls-6 {
        clip-path: url(#clip-path-3);
      }

      .cls-7 {
        fill: url(#Безымянный_градиент_17-3);
      }

      .cls-8 {
        clip-path: url(#clip-path-4);
      }

      .cls-9 {
        fill: url(#Безымянный_градиент_17-4);
      }

      .cls-10 {
        clip-path: url(#clip-path-5);
      }

      .cls-11 {
        fill: url(#Безымянный_градиент_17-5);
      }

      .cls-12 {
        clip-path: url(#clip-path-6);
      }

      .cls-13 {
        fill: url(#Безымянный_градиент_17-6);
      }

      .cls-14 {
        clip-path: url(#clip-path-7);
      }

      .cls-15 {
        fill: url(#Безымянный_градиент_17-7);
      }

      .cls-16 {
        clip-path: url(#clip-path-8);
      }

      .cls-17 {
        fill: url(#Безымянный_градиент_17-8);
      }

      .cls-18 {
        clip-path: url(#clip-path-9);
      }

      .cls-19 {
        fill: url(#Безымянный_градиент_17-9);
      }

      .cls-20 {
        clip-path: url(#clip-path-10);
      }

      .cls-21 {
        fill: url(#Безымянный_градиент_17-10);
      }

      .cls-22 {
        clip-path: url(#clip-path-11);
      }

      .cls-23 {
        fill: url(#Безымянный_градиент_17-11);
      }

      .cls-24 {
        clip-path: url(#clip-path-12);
      }

      .cls-25 {
        fill: url(#Безымянный_градиент_17-12);
      }

      .cls-26 {
        clip-path: url(#clip-path-13);
      }

      .cls-27 {
        fill: url(#Безымянный_градиент_17-13);
      }

      .cls-28 {
        clip-path: url(#clip-path-14);
      }

      .cls-29 {
        fill: url(#Безымянный_градиент_17-14);
      }

      .cls-30 {
        clip-path: url(#clip-path-15);
      }

      .cls-31 {
        fill: url(#Безымянный_градиент_17-15);
      }

      .cls-32 {
        clip-path: url(#clip-path-16);
      }

      .cls-33 {
        fill: url(#Безымянный_градиент_17-16);
      }

      .cls-34 {
        clip-path: url(#clip-path-17);
      }

      .cls-35 {
        fill: url(#Безымянный_градиент_17-17);
      }
    </style>
    <clipPath id="clip-path" transform="translate(0.37 0)">
      <path class="cls-1" d="M256,0a17.65,17.65,0,0,0-17.61,18.6V62.37a17.16,17.16,0,0,0,17.44,17h.44a17.16,17.16,0,0,0,17.43-17V17.61a17.24,17.24,0,0,0-5.2-12.45A17.68,17.68,0,0,0,256,0Z"/>
    </clipPath>
    <linearGradient id="Безымянный_градиент_17" data-name="Безымянный градиент 17" y1="511.95" x2="1" y2="511.95" gradientTransform="matrix(0, 518.24, 518.24, 0, -265057.11, -2.04)" gradientUnits="userSpaceOnUse">
      <stop offset="0" stop-color="aqua"/>
      <stop offset="1" stop-color="#0a898f"/>
      <stop offset="1" stop-color="#0a898f"/>
    </linearGradient>
    <clipPath id="clip-path-2" transform="translate(0.37 0)">
      <path class="cls-1" d="M256.22,432.5h-.44a17.16,17.16,0,0,0-17.44,17v44.76A17.7,17.7,0,0,0,259,511.69a18.41,18.41,0,0,0,14.63-18.47V449.53a17.15,17.15,0,0,0-17.15-17h-.28"/>
    </clipPath>
    <linearGradient id="Безымянный_градиент_17-2" x1="0" y1="511.95" x2="1" y2="511.95" gradientTransform="matrix(0, 518.24, 518.24, 0, -265057.1, -2.04)" xlink:href="#Безымянный_градиент_17"/>
    <clipPath id="clip-path-3" transform="translate(0.37 0)">
      <path class="cls-1" d="M154.88,21.25A19.06,19.06,0,0,0,149.1,44l16.43,39.81a17.7,17.7,0,0,0,32.66-13.49L181.14,29a17.52,17.52,0,0,0-26.26-7.74"/>
    </clipPath>
    <linearGradient id="Безымянный_градиент_17-3" x1="0" y1="511.95" x2="1" y2="511.95" gradientTransform="matrix(0, 518.24, 518.24, 0, -265139.77, -2.04)" xlink:href="#Безымянный_градиент_17"/>
    <clipPath id="clip-path-4" transform="translate(0.37 0)">
      <path class="cls-1" d="M323.77,419.41a17.71,17.71,0,0,0-10,22.18l17.05,41.32a17.67,17.67,0,1,0,32.66-13.51l-17-41.31a17.7,17.7,0,0,0-22.7-8.68"/>
    </clipPath>
    <linearGradient id="Безымянный_градиент_17-4" x1="0" y1="511.95" x2="1" y2="511.95" gradientTransform="matrix(0, 518.24, 518.24, 0, -264974.25, -2.04)" xlink:href="#Безымянный_градиент_17"/>
    <clipPath id="clip-path-5" transform="translate(0.37 0)">
      <path class="cls-1" d="M86.65,69.7A17.59,17.59,0,0,0,73.89,76a18.34,18.34,0,0,0,1.76,24.54l31,31a17.67,17.67,0,0,0,25-25L99.93,74.9a17.58,17.58,0,0,0-12.5-5.22l-.78,0"/>
    </clipPath>
    <linearGradient id="Безымянный_градиент_17-5" x1="0" y1="511.95" x2="1" y2="511.95" gradientTransform="matrix(0, 518.24, 518.24, 0, -265209.69, -2.04)" xlink:href="#Безымянный_градиент_17"/>
    <clipPath id="clip-path-6" transform="translate(0.37 0)">
      <path class="cls-1" d="M388.29,375.75a17.66,17.66,0,0,0-7.92,29.55l31,31A18.39,18.39,0,0,0,434.77,439,17.66,17.66,0,0,0,437.05,412l-31.7-31.7a17.66,17.66,0,0,0-12.49-5.17,17.87,17.87,0,0,0-4.57.6"/>
    </clipPath>
    <linearGradient id="Безымянный_градиент_17-6" x1="0" y1="511.95" x2="1" y2="511.95" gradientTransform="matrix(0, 518.24, 518.24, 0, -264904.38, -2.04)" xlink:href="#Безымянный_градиент_17"/>
    <clipPath id="clip-path-7" transform="translate(0.37 0)">
      <path class="cls-1" d="M175.17,418.73a17.18,17.18,0,0,0-9.64,9.36L148.48,469.4a17.67,17.67,0,1,0,32.66,13.51l17.08-41.34a17.18,17.18,0,0,0-9.62-22.4h0a17.14,17.14,0,0,0-13.43-.44"/>
    </clipPath>
    <linearGradient id="Безымянный_градиент_17-7" x1="0" y1="511.95" x2="1" y2="511.95" gradientTransform="matrix(0, 518.24, 518.24, 0, -265139.8, -2.04)" xlink:href="#Безымянный_градиент_17"/>
    <clipPath id="clip-path-8" transform="translate(0.37 0)">
      <path class="cls-1" d="M17.65,238.3A17.64,17.64,0,0,0,.07,257.51a18.32,18.32,0,0,0,18.57,16.1H62.42a17.16,17.16,0,0,0,17-17.44v-.44a17.14,17.14,0,0,0-17-17.43Z"/>
    </clipPath>
    <linearGradient id="Безымянный_градиент_17-8" x1="0" y1="511.95" x2="1" y2="511.95" gradientTransform="matrix(0, 518.24, 518.24, 0, -265273.37, -2.04)" xlink:href="#Безымянный_градиент_17"/>
    <clipPath id="clip-path-9" transform="translate(0.37 0)">
      <path class="cls-1" d="M494.34,238.3H449.58a17.14,17.14,0,0,0-17,17.43v.44a17.16,17.16,0,0,0,17,17.44h43.69A18.43,18.43,0,0,0,511.74,259a17.65,17.65,0,0,0-17.39-20.66h0"/>
    </clipPath>
    <linearGradient id="Безымянный_градиент_17-9" x1="0" y1="511.95" x2="1" y2="511.95" gradientTransform="matrix(0, 518.24, 518.24, 0, -264840.82, -2.04)" xlink:href="#Безымянный_градиент_17"/>
    <clipPath id="clip-path-10" transform="translate(0.37 0)">
      <path class="cls-1" d="M70.38,313.73,29,330.81A17.76,17.76,0,0,0,18.1,347.14a18.14,18.14,0,0,0,26,15.7l39.81-16.42a17.69,17.69,0,0,0-13.5-32.69"/>
    </clipPath>
    <linearGradient id="Безымянный_градиент_17-10" x1="0" y1="511.95" x2="1" y2="511.95" gradientTransform="matrix(0, 518.24, 518.24, 0, -265256.86, -2.04)" xlink:href="#Безымянный_градиент_17"/>
    <clipPath id="clip-path-11" transform="translate(0.37 0)">
      <path class="cls-1" d="M21.3,154.87A17.51,17.51,0,0,0,29,181.09l41.34,17.08a17.7,17.7,0,0,0,13.5-32.66L44.07,149.09a19.11,19.11,0,0,0-22.77,5.78"/>
    </clipPath>
    <linearGradient id="Безымянный_градиент_17-11" x1="0" y1="511.95" x2="1" y2="511.95" gradientTransform="matrix(0, 518.24, 518.24, 0, -265257.07, -2.04)" xlink:href="#Безымянный_градиент_17"/>
    <clipPath id="clip-path-12" transform="translate(0.37 0)">
      <path class="cls-1" d="M419.44,323.68a17.71,17.71,0,0,0,8.68,22.71l41.33,17.08A17.67,17.67,0,0,0,483,330.81l-41.34-17.08a17.68,17.68,0,0,0-22.18,9.95"/>
    </clipPath>
    <linearGradient id="Безымянный_градиент_17-12" x1="0" y1="511.95" x2="1" y2="511.95" gradientTransform="matrix(0, 518.24, 518.24, 0, -264857.11, -2.04)" xlink:href="#Безымянный_градиент_17"/>
    <clipPath id="clip-path-13" transform="translate(0.37 0)">
      <path class="cls-1" d="M106.65,380.32,75,412A17.66,17.66,0,0,0,77.23,439a18.37,18.37,0,0,0,23.4-2.65l31-31a17.89,17.89,0,0,0-12.71-29.9h-.23a17.16,17.16,0,0,0-12,4.92"/>
    </clipPath>
    <linearGradient id="Безымянный_градиент_17-13" x1="0" y1="511.95" x2="1" y2="511.95" gradientTransform="matrix(0, 518.24, 518.24, 0, -265209.94, -2.04)" xlink:href="#Безымянный_градиент_17"/>
    <clipPath id="clip-path-14" transform="translate(0.37 0)">
      <path class="cls-1" d="M202.58,170.31a17.65,17.65,0,0,0-8.37,15V326.57a17.65,17.65,0,0,0,25.54,15.79l123.59-70.62a17.65,17.65,0,0,0,0-31.58L219.75,169.54a17.68,17.68,0,0,0-17.17.77"/>
    </clipPath>
    <linearGradient id="Безымянный_градиент_17-14" x1="0" y1="511.95" x2="1" y2="511.95" gradientTransform="matrix(0, 518.24, 518.24, 0, -265039.44, -2.04)" xlink:href="#Безымянный_градиент_17"/>
    <clipPath id="clip-path-15" transform="translate(0.37 0)">
      <path class="cls-1" d="M339.06,32.38l-16.9,40.77a8.85,8.85,0,0,0,4.78,11.55,8.83,8.83,0,0,0,11.54-4.78l16.88-40.78a8.83,8.83,0,0,0-4.87-11.3,8.73,8.73,0,0,0-3.37-.67,8.83,8.83,0,0,0-8.06,5.21"/>
    </clipPath>
    <linearGradient id="Безымянный_градиент_17-15" x1="0" y1="511.95" x2="1" y2="511.95" gradientTransform="matrix(0, 518.24, 518.24, 0, -264974.38, -2.04)" xlink:href="#Безымянный_градиент_17"/>
    <clipPath id="clip-path-16" transform="translate(0.37 0)">
      <path class="cls-1" d="M418.29,81.16l-31.21,31.21a8.83,8.83,0,1,0,12.48,12.49l31.23-31.2a8.84,8.84,0,0,0-12.5-12.5"/>
    </clipPath>
    <linearGradient id="Безымянный_градиент_17-16" x1="0" y1="511.95" x2="1" y2="511.95" gradientTransform="matrix(0, 518.24, 518.24, 0, -264904.17, -2.04)" xlink:href="#Безымянный_градиент_17"/>
    <clipPath id="clip-path-17" transform="translate(0.37 0)">
      <path class="cls-1" d="M472.81,156.59,432,173.48a8.83,8.83,0,1,0,6.76,16.31l40.78-16.89a8.83,8.83,0,1,0-6.76-16.31"/>
    </clipPath>
    <linearGradient id="Безымянный_градиент_17-17" x1="0" y1="511.95" x2="1" y2="511.95" gradientTransform="matrix(0, 518.22, 518.22, 0, -264842.67, -2.04)" xlink:href="#Безымянный_градиент_17"/>
  </defs>
  <g id="Слой_2" data-name="Слой 2">
    <g id="Слой_1-2" data-name="Слой 1">
      <g class="cls-2">
        <rect class="cls-3" x="238.32" width="35.72" height="79.47"/>
      </g>
      <g class="cls-4">
        <rect class="cls-5" x="238.71" y="432.43" width="35.53" height="80.14"/>
      </g>
      <g class="cls-6">
        <rect class="cls-7" x="145.94" y="18.09" width="55.7" height="77.99"/>
      </g>
      <g class="cls-8">
        <rect class="cls-9" x="311.1" y="418.07" width="56.52" height="78.15"/>
      </g>
      <g class="cls-10">
        <rect class="cls-11" x="68.46" y="69.68" width="69.75" height="68.1"/>
      </g>
      <g class="cls-12">
        <rect class="cls-13" x="374.53" y="375.15" width="68.45" height="68.69"/>
      </g>
      <g class="cls-14">
        <rect class="cls-15" x="145.12" y="417.58" width="55.18" height="78.64"/>
      </g>
      <g class="cls-16">
        <rect class="cls-17" y="238.3" width="79.89" height="35.51"/>
      </g>
      <g class="cls-18">
        <rect class="cls-19" x="432.85" y="238.3" width="80.15" height="35.53"/>
      </g>
      <g class="cls-20">
        <rect class="cls-21" x="18.46" y="312.48" width="76.75" height="53"/>
      </g>
      <g class="cls-22">
        <rect class="cls-23" x="17.73" y="147.48" width="78.77" height="53.78"/>
      </g>
      <g class="cls-24">
        <rect class="cls-25" x="416.23" y="312.74" width="80.41" height="54.46"/>
      </g>
      <g class="cls-26">
        <rect class="cls-27" x="69.75" y="375.4" width="67.29" height="68.44"/>
      </g>
      <g class="cls-28">
        <rect class="cls-29" x="194.57" y="167.68" width="158.9" height="177.42"/>
      </g>
      <g class="cls-30">
        <rect class="cls-31" x="321.63" y="27.17" width="35.8" height="58.43"/>
      </g>
      <g class="cls-32">
        <rect class="cls-33" x="384.16" y="78.58" width="50.44" height="48.88"/>
      </g>
      <g class="cls-34">
        <rect class="cls-35" x="426.72" y="155.91" width="59.85" height="34.77"/>
      </g>
    </g>
  </g>
</svg>
