<svg xmlns="http://www.w3.org/2000/svg" xmlns:xlink="http://www.w3.org/1999/xlink" viewBox="0 0 238.4 238.46">
  <defs>
    <style>
      .cls-1 {
        fill: none;
      }

      .cls-2 {
        clip-path: url(#clip-path);
      }

      .cls-3 {
        fill: url(#Безымянный_градиент);
      }

      .cls-4 {
        clip-path: url(#clip-path-2);
      }

      .cls-5 {
        fill: url(#Безымянный_градиент_2);
      }
    </style>
    <clipPath id="clip-path" transform="translate(0.02)">
      <path class="cls-1" d="M144.49,17.66a5.48,5.48,0,0,1,4.32-1.77c12,.08,24,0,36,.1a4.86,4.86,0,0,1,3.31,1.45Q204.65,37.08,221,56.9a6.37,6.37,0,0,1,1.37,3.73c.09,22.92,0,45.84.11,68.76a4.69,4.69,0,0,1-1.7,3.82q-47.26,43.57-94.44,87.25c-1.84,1.71-3.71,1.92-6,2.13-4.29.41-7.32-1.12-10.47-4.05q-46-42.78-92.22-85.25a5,5,0,0,1-1.81-4c.06-22.92,0-45.84.08-68.76a5.66,5.66,0,0,1,1.16-3.31q16.51-20,33.2-39.84A4.56,4.56,0,0,1,53.41,16c12.08-.09,24.16,0,36.24-.08a5.21,5.21,0,0,1,4.12,1.67c7.79,7.9,15.65,15.71,23.49,23.55.57.58,1.18,1.12,2,1.87,8.56-8.57,17-16.91,25.25-25.34M46.07,0a4.3,4.3,0,0,0-3.66,1.83Q22,26.48,1.49,51.09a6.7,6.7,0,0,0-1.43,4q-.12,40.71,0,81.43a5.13,5.13,0,0,0,1.42,3.37q52.64,48.75,105.4,97.35a5,5,0,0,0,3,1.15q9.31.15,18.62,0a5,5,0,0,0,3-1.22q52.39-48.27,104.76-96.58a5.94,5.94,0,0,0,2.07-4.86v-.06q-.09-40,0-79.94a7.33,7.33,0,0,0-1.82-5.13c-13.66-16.3-27.23-32.67-40.91-48.95A4.82,4.82,0,0,0,192.37.1C175.57,0,158.77.06,142,0a4.94,4.94,0,0,0-3.89,1.61c-6.2,6.31-12.48,12.53-18.91,19-6.5-6.5-12.72-12.8-19.06-19A5.69,5.69,0,0,0,96.52.11C79.72,0,62.92.07,46.12,0Z"/>
    </clipPath>
    <linearGradient id="Безымянный_градиент" data-name="Безымянный градиент" y1="238.43" x2="1" y2="238.43" gradientTransform="matrix(0, 242.51, 242.51, 0, -57703.57, -5.91)" gradientUnits="userSpaceOnUse">
      <stop offset="0" stop-color="aqua"/>
      <stop offset="0.04" stop-color="aqua"/>
      <stop offset="1" stop-color="#0a898f"/>
      <stop offset="1" stop-color="#0a898f"/>
    </linearGradient>
    <clipPath id="clip-path-2" transform="translate(0.02)">
      <path class="cls-1" d="M163.41,36.92c7.92,9.51,15.62,18.81,23.41,28a6.9,6.9,0,0,1,1.83,4.87c-.09,10.26,0,20.51,0,30.77v2.62h15.74a7.71,7.71,0,0,0,.14-1c0-13.15,0-26.3,0-39.45a5,5,0,0,0-1.24-2.79c-7-8.55-14.15-17.06-21.24-25.57l-6.37-7.62L163.41,36.92"/>
    </clipPath>
    <linearGradient id="Безымянный_градиент_2" data-name="Безымянный градиент 2" y1="238.43" x2="1" y2="238.43" gradientTransform="matrix(0, 242.51, 242.51, 0, -57638.81, -5.91)" gradientUnits="userSpaceOnUse">
      <stop offset="0" stop-color="aqua"/>
      <stop offset="1" stop-color="#0a898f"/>
      <stop offset="1" stop-color="#0a898f"/>
    </linearGradient>
  </defs>
  <g id="Слой_2" data-name="Слой 2">
    <g id="Слой_1-2" data-name="Слой 1">
      <g class="cls-2">
        <rect class="cls-3" width="238.4" height="238.46"/>
      </g>
      <g class="cls-4">
        <rect class="cls-5" x="163.43" y="26.74" width="41.11" height="76.47"/>
      </g>
    </g>
  </g>
</svg>
