<svg xmlns="http://www.w3.org/2000/svg" xmlns:xlink="http://www.w3.org/1999/xlink" viewBox="0 0 511.08 510.78">
  <defs>
    <style>
      .cls-1 {
        fill: none;
      }

      .cls-2 {
        clip-path: url(#clip-path);
      }

      .cls-3 {
        fill: url(#Безымянный_градиент_5);
      }

      .cls-4 {
        clip-path: url(#clip-path-2);
      }

      .cls-5 {
        fill: url(#Безымянный_градиент_5-2);
      }

      .cls-6 {
        clip-path: url(#clip-path-3);
      }

      .cls-7 {
        fill: url(#Безымянный_градиент_5-3);
      }

      .cls-8 {
        clip-path: url(#clip-path-4);
      }

      .cls-9 {
        fill: url(#Безымянный_градиент_5-4);
      }

      .cls-10 {
        clip-path: url(#clip-path-5);
      }

      .cls-11 {
        fill: url(#Безымянный_градиент_5-5);
      }
    </style>
    <clipPath id="clip-path" transform="translate(0)">
      <path class="cls-1" d="M30.35,256.5c1.72,1.23,3.14,2.21,4.53,3.24q66.18,49.32,132.44,98.55a14.46,14.46,0,0,0,8.1,2.64q79.83.24,159.66,0a17,17,0,0,0,9.44-3.1q66.14-49,132-98.28c1.19-.89,2.42-1.73,4.15-3V464.16l-87-69.88L375,417.61l78.19,62.9H58.06l78.13-62.87c-6.33-7.91-12.43-15.51-18.73-23.36l-87.11,70Zm390.37-75.69,51.45,44.58L420.72,263.8ZM39,225.44l51.64-44.76V263.9L39,225.44M184.89,331a13,13,0,0,1-7.21-2.33q-27-19.74-53.58-39.94a8.65,8.65,0,0,1-3.12-5.95q-.23-124.75-.1-249.51c0-1,.08-2,.15-3.36H390.29v4.57q0,123.76.11,247.52a8.1,8.1,0,0,1-3.76,7.36c-17.67,13-35.18,26.24-52.9,39.19a13.84,13.84,0,0,1-7.65,2.47q-33.13.11-66.28.1-37.47,0-74.92-.12M90.9,0V6q0,65.13.07,130.27a8.94,8.94,0,0,1-3.45,7.6c-28,24.07-55.87,48.3-83.86,72.39A9.43,9.43,0,0,0,0,224.11v1.07Q.15,368,.08,510.78h511V219.3Q466.73,181,422.47,142.52c-1.42-1.24-2.12-4-2.12-6q-.18-63.88-.08-127.77V0Z"/>
    </clipPath>
    <linearGradient id="Безымянный_градиент_5" data-name="Безымянный градиент 5" y1="510.78" x2="1" y2="510.78" gradientTransform="matrix(0, 525.01, 525.01, 0, -267908.4, -5.54)" gradientUnits="userSpaceOnUse">
      <stop offset="0" stop-color="aqua"/>
      <stop offset="1" stop-color="#0a898f"/>
      <stop offset="1" stop-color="#0a898f"/>
    </linearGradient>
    <clipPath id="clip-path-2" transform="translate(0)">
      <rect class="cls-1" x="180.94" y="241.49" width="149.11" height="29.4"/>
    </clipPath>
    <linearGradient id="Безымянный_градиент_5-2" y1="510.78" y2="510.78" gradientTransform="matrix(0, 525.01, 525.01, 0, -267908.44, -5.54)" xlink:href="#Безымянный_градиент_5"/>
    <clipPath id="clip-path-3" transform="translate(0)">
      <path class="cls-1" d="M207.16,164.77c6.63,6.58,13.53,13.43,19.93,19.8l76.37-76.39-19.93-19.8-76.37,76.39"/>
    </clipPath>
    <linearGradient id="Безымянный_градиент_5-3" y1="510.78" y2="510.78" gradientTransform="matrix(0, 525.01, 525.01, 0, -267908.62, -5.54)" xlink:href="#Безымянный_градиент_5"/>
    <clipPath id="clip-path-4" transform="translate(0)">
      <rect class="cls-1" x="210.93" y="91.75" width="29.33" height="29.54"/>
    </clipPath>
    <linearGradient id="Безымянный_градиент_5-4" y1="510.78" y2="510.78" gradientTransform="matrix(0, 525.01, 525.01, 0, -267938.34, -5.54)" xlink:href="#Безымянный_градиент_5"/>
    <clipPath id="clip-path-5" transform="translate(0)">
      <rect class="cls-1" x="270.77" y="151.64" width="29.34" height="29.39"/>
    </clipPath>
    <linearGradient id="Безымянный_градиент_5-5" y1="510.78" y2="510.78" gradientTransform="matrix(0, 525.01, 525.01, 0, -267878.5, -5.54)" xlink:href="#Безымянный_градиент_5"/>
  </defs>
  <g id="Слой_2" data-name="Слой 2">
    <g id="Слой_1-2" data-name="Слой 1">
      <g class="cls-2">
        <rect class="cls-3" width="511.08" height="510.78"/>
      </g>
      <g class="cls-4">
        <rect class="cls-5" x="180.94" y="241.49" width="149.11" height="29.4"/>
      </g>
      <g class="cls-6">
        <rect class="cls-7" x="207.16" y="88.38" width="96.3" height="96.19"/>
      </g>
      <g class="cls-8">
        <rect class="cls-9" x="210.93" y="91.75" width="29.33" height="29.54"/>
      </g>
      <g class="cls-10">
        <rect class="cls-11" x="270.77" y="151.64" width="29.34" height="29.39"/>
      </g>
    </g>
  </g>
</svg>
