<svg xmlns="http://www.w3.org/2000/svg" xmlns:xlink="http://www.w3.org/1999/xlink" viewBox="0 0 540.59 524.42">
  <defs>
    <style>
      .cls-1 {
        fill: none;
      }

      .cls-2 {
        clip-path: url(#clip-path);
      }

      .cls-3 {
        fill: url(#Безымянный_градиент_2);
      }

      .cls-4 {
        clip-path: url(#clip-path-2);
      }

      .cls-5 {
        fill: url(#Безымянный_градиент_2-2);
      }
    </style>
    <clipPath id="clip-path" transform="translate(0 0)">
      <path class="cls-1" d="M362.58,0V50.73a223.34,223.34,0,0,1,131,203.39c0,123.33-100,223.31-223.3,223.31S47,377.45,47,254.12A223.34,223.34,0,0,1,178,50.73V0C74.17,37.72,0,137.25,0,254.12c0,149.28,121,270.3,270.3,270.3s270.29-121,270.29-270.3C540.59,137.25,466.42,37.72,362.58,0Z"/>
    </clipPath>
    <linearGradient id="Безымянный_градиент_2" data-name="Безымянный градиент 2" y1="524.42" x2="1" y2="524.42" gradientTransform="matrix(0, 518.67, 518.67, 0, -271728.59, 0.75)" gradientUnits="userSpaceOnUse">
      <stop offset="0" stop-color="aqua"/>
      <stop offset="0.04" stop-color="aqua"/>
      <stop offset="1" stop-color="#0a898f"/>
      <stop offset="1" stop-color="#0a898f"/>
    </linearGradient>
    <clipPath id="clip-path-2" transform="translate(0 0)">
      <rect class="cls-1" x="245.09" width="50.42" height="262.21"/>
    </clipPath>
    <linearGradient id="Безымянный_градиент_2-2" y1="524.42" y2="524.42" xlink:href="#Безымянный_градиент_2"/>
  </defs>
  <g id="Слой_2" data-name="Слой 2">
    <g id="Слой_1-2" data-name="Слой 1">
      <g class="cls-2">
        <rect class="cls-3" width="540.59" height="524.42"/>
      </g>
      <g class="cls-4">
        <rect class="cls-5" x="245.09" width="50.42" height="262.21"/>
      </g>
    </g>
  </g>
</svg>
