<svg xmlns="http://www.w3.org/2000/svg" xmlns:xlink="http://www.w3.org/1999/xlink" viewBox="0 0 24 24">
  <defs>
    <style>
      .cls-1 {
        fill: none;
      }

      .cls-2 {
        clip-path: url(#clip-path);
      }

      .cls-3 {
        fill: #bf55ec;
      }
    </style>
    <clipPath id="clip-path">
      <rect class="cls-1" width="24" height="24"/>
    </clipPath>
  </defs>
  <g id="Слой_2" data-name="Слой 2">
    <g id="Слой_1-2" data-name="Слой 1">
      <g class="cls-2">
        <path class="cls-3" d="M24,12A12,12,0,0,1,0,12c0-.37,0-.73.05-1.09l2,.18A9.1,9.1,0,0,0,2,12,10,10,0,1,0,12,2a9.1,9.1,0,0,0-.91,0l-.18-2c.36,0,.72,0,1.09,0A12,12,0,0,1,24,12M5.66,4.26,4.39,2.72A12.05,12.05,0,0,0,2.72,4.4L4.26,5.67a9.82,9.82,0,0,1,1.4-1.41M9.14,2.42,8.57.5a12.39,12.39,0,0,0-2.2.9l.94,1.77a9.39,9.39,0,0,1,1.83-.75m-6,4.9L1.4,6.38a12.1,12.1,0,0,0-.9,2.2l1.92.57a9.44,9.44,0,0,1,.74-1.84ZM11,6v4.28a1.91,1.91,0,0,0-.72.72H7v2h3.28a2,2,0,0,0,3.45-2,2,2,0,0,0-.73-.73V6Z"/>
      </g>
    </g>
  </g>
</svg>
