<svg xmlns="http://www.w3.org/2000/svg" viewBox="0 0 140 140">
  <defs>
    <style>
      .cls-1 {
        fill: #4a75a2;
      }
    </style>
  </defs>
  <g id="Слой_2" data-name="Слой 2">
    <g id="Слой_1-2" data-name="Слой 1">
      <path class="cls-1" d="M111.63,140H0V28.37L28.37,0H140V111.63ZM9.33,130.67h98.43l22.91-22.91V9.33H32.24L9.33,32.24Z"/>
      <path class="cls-1" d="M96.73,75.7A100,100,0,0,1,104,83a20.58,20.58,0,0,1,2.6,3.75c1,1.94.1,4.07-1.64,4.18H94.15a8.35,8.35,0,0,1-6.87-2.79C85.78,86.61,84.4,85,83,83.42A10.28,10.28,0,0,0,81,81.69a2.26,2.26,0,0,0-3.6.87,11.44,11.44,0,0,0-1.14,5c-.11,2.54-.88,3.21-3.44,3.33a27.65,27.65,0,0,1-15.45-3.32A34.15,34.15,0,0,1,47,77.87,130.63,130.63,0,0,1,33.31,53.48c-.86-1.92-.23-2.95,1.89-3,3.52-.07,7-.06,10.57,0a3.14,3.14,0,0,1,2.94,2.2A64.94,64.94,0,0,0,55.87,66a11.29,11.29,0,0,0,2.71,3c1.25.86,2.2.58,2.79-.82A8.9,8.9,0,0,0,62,65.33a41.38,41.38,0,0,0-.17-9.76,4.08,4.08,0,0,0-3.46-3.73c-1-.19-.88-.58-.38-1.17A3.89,3.89,0,0,1,61.29,49h12.2c1.92.37,2.35,1.24,2.61,3.17l0,13.56c0,.75.37,3,1.72,3.46,1.08.36,1.79-.51,2.43-1.19a42.1,42.1,0,0,0,6.88-10.56c.82-1.67,1.53-3.41,2.22-5.14a2.63,2.63,0,0,1,2.76-1.89h11.75a6,6,0,0,1,1,.07c2,.33,2.52,1.19,1.91,3.12-1,3-2.84,5.56-4.67,8.1-2,2.71-4.06,5.32-6,8.05-1.79,2.49-1.64,3.75.57,5.91Z"/>
    </g>
  </g>
</svg>
