<svg xmlns="http://www.w3.org/2000/svg" xmlns:xlink="http://www.w3.org/1999/xlink" viewBox="0 0 24 18">
  <defs>
    <style>
      .cls-1 {
        fill: none;
      }

      .cls-2 {
        clip-path: url(#clip-path);
      }

      .cls-3 {
        fill: #eee417;
      }
    </style>
    <clipPath id="clip-path">
      <rect class="cls-1" width="24" height="18"/>
    </clipPath>
  </defs>
  <g id="Слой_2" data-name="Слой 2">
    <g id="Слой_1-2" data-name="Слой 1">
      <g class="cls-2">
        <path class="cls-3" d="M5.5,11A1.5,1.5,0,1,1,4,12.5,1.5,1.5,0,0,1,5.5,11"/>
        <path class="cls-3" d="M21,0H3A3,3,0,0,0,0,3V18H24V3a3,3,0,0,0-3-3M3,2H21a.94.94,0,0,1,1,1V5H2V3A.94.94,0,0,1,3,2M2,7H22v9H2Z"/>
      </g>
    </g>
  </g>
</svg>
