<svg xmlns="http://www.w3.org/2000/svg" viewBox="0 0 512 512">
  <defs>
    <style>
      .cls-1 {
        fill: #8a8a8a;
      }
    </style>
  </defs>
  <g id="Слой_2" data-name="Слой 2">
    <g id="Capa_1" data-name="Capa 1">
      <polygon class="cls-1" points="68.28 40 165 40 165 0 0 0 0 165 40 165 40 68.28 177 205.28 205.28 177 68.28 40"/>
      <polygon class="cls-1" points="205.28 335 177 306.72 40 443.72 40 347 0 347 0 512 165 512 165 472 68.28 472 205.28 335"/>
      <polygon class="cls-1" points="347 0 347 40 443.72 40 306.72 177 335 205.28 472 68.28 472 165 512 165 512 0 347 0"/>
      <polygon class="cls-1" points="472 347 472 443.72 335 306.72 306.72 335 443.72 472 347 472 347 512 512 512 512 347 472 347"/>
    </g>
  </g>
</svg>
