<?xml version="1.0" standalone="no"?>
<!DOCTYPE svg PUBLIC "-//W3C//DTD SVG 20010904//EN"
 "http://www.w3.org/TR/2001/REC-SVG-20010904/DTD/svg10.dtd">
<svg version="1.0" xmlns="http://www.w3.org/2000/svg"
 width="1044.000000pt" height="1044.000000pt" viewBox="0 0 1044.000000 1044.000000"
 preserveAspectRatio="xMidYMid meet">
<metadata>
Created by potrace 1.14, written by Peter Selinger 2001-2017
</metadata>
<g transform="translate(0.000000,1044.000000) scale(0.100000,-0.100000)"
fill="#000000" stroke="none">
<path d="M5740 9425 c-1 -16 -2 -110 -2 -207 0 -183 5 -209 50 -257 8 -8 18
-24 23 -35 8 -19 66 -105 89 -133 5 -7 10 -14 10 -17 0 -2 22 -37 49 -78 82
-123 315 -480 346 -530 17 -27 33 -48 38 -48 4 0 7 -5 7 -10 0 -6 32 -58 70
-116 39 -57 70 -107 70 -110 0 -3 5 -10 11 -17 11 -12 257 -387 631 -962 53
-82 104 -158 113 -167 8 -10 15 -21 15 -25 0 -3 11 -20 23 -37 13 -17 26 -35
28 -41 2 -5 35 -57 73 -115 38 -58 103 -157 144 -220 42 -63 144 -220 229
-348 84 -128 153 -235 153 -238 0 -2 9 -14 20 -26 11 -12 20 -28 20 -35 0 -7
5 -13 10 -13 6 0 10 -7 10 -15 0 -8 5 -15 10 -15 6 0 10 -4 10 -8 0 -5 58 -96
128 -203 70 -107 161 -246 202 -309 41 -63 78 -116 82 -118 5 -2 8 -8 8 -12 0
-5 31 -56 68 -112 38 -57 105 -159 149 -228 45 -69 86 -130 92 -137 6 -7 11
-15 11 -18 0 -3 5 -11 10 -18 24 -27 230 -349 230 -357 0 -6 5 -10 10 -10 6 0
10 -5 10 -11 0 -6 6 -17 13 -24 23 -27 33 -40 37 -50 2 -5 51 -82 108 -170
144 -220 295 -449 377 -575 37 -58 95 -145 127 -193 32 -48 58 -92 58 -97 0
-6 3 -10 8 -10 4 0 16 -17 27 -37 11 -20 25 -41 30 -47 6 -6 26 -36 45 -66 19
-30 38 -56 42 -58 5 -2 8 -8 8 -12 0 -5 44 -76 98 -157 89 -133 103 -150 143
-166 24 -11 58 -25 75 -33 133 -59 245 -102 241 -91 -2 7 -71 113 -152 237
-81 124 -187 286 -236 360 -48 74 -91 140 -96 145 -5 6 -24 35 -43 65 -19 30
-109 168 -200 305 -91 138 -167 254 -169 260 -2 5 -53 83 -113 173 -59 90
-108 168 -108 173 0 5 -3 9 -7 9 -5 0 -24 27 -43 60 -19 33 -38 60 -42 60 -5
0 -8 4 -8 9 0 6 -40 70 -88 143 -48 73 -116 176 -150 228 -34 52 -66 102 -72
110 -5 8 -34 51 -62 95 -29 44 -87 133 -130 198 -43 65 -78 120 -78 123 0 3
-5 10 -11 17 -12 14 -344 519 -350 533 -2 5 -84 130 -181 277 -98 147 -178
272 -178 277 0 4 -3 10 -7 12 -8 3 -59 77 -79 115 -7 12 -17 28 -23 35 -21 24
-61 89 -61 98 0 4 -3 10 -7 12 -7 2 -112 158 -148 218 -5 9 -31 48 -56 86 -25
38 -81 123 -124 189 -43 66 -113 173 -157 238 -43 64 -78 121 -78 126 0 4 -9
16 -20 26 -11 10 -20 24 -20 32 0 7 -4 13 -10 13 -5 0 -10 5 -10 11 0 6 -12
28 -27 48 -37 48 -52 72 -59 94 -4 9 -10 17 -14 17 -4 0 -15 16 -24 35 -9 19
-21 35 -26 35 -6 0 -10 4 -10 9 0 9 -75 127 -305 476 -50 77 -122 187 -159
244 -77 118 -251 382 -382 581 -49 74 -91 140 -94 145 -6 11 -114 177 -200
305 -31 47 -59 92 -63 100 -3 9 -6 3 -7 -15z"/>
<path d="M4683 9424 c-4 -10 -11 -23 -16 -29 -9 -11 -148 -222 -335 -510 -64
-99 -120 -181 -124 -183 -5 -2 -8 -10 -8 -18 0 -8 -4 -14 -10 -14 -5 0 -10 -4
-10 -9 0 -5 -26 -49 -58 -98 -32 -48 -76 -115 -98 -148 -21 -33 -42 -61 -46
-63 -5 -2 -8 -8 -8 -12 0 -12 -212 -334 -222 -338 -4 -2 -8 -8 -8 -13 0 -4
-53 -88 -117 -186 -65 -98 -120 -183 -123 -188 -12 -25 -85 -130 -92 -133 -5
-2 -8 -8 -8 -12 0 -9 -147 -239 -160 -250 -7 -7 -28 -41 -37 -60 -4 -8 -11
-19 -16 -25 -9 -11 -96 -144 -302 -460 -71 -110 -133 -201 -137 -203 -5 -2 -8
-7 -8 -12 0 -4 -26 -48 -58 -96 -33 -49 -93 -141 -134 -204 -41 -63 -119 -182
-174 -265 -54 -82 -100 -153 -102 -157 -3 -7 -184 -282 -202 -308 -6 -8 -35
-53 -65 -100 -30 -47 -58 -90 -63 -96 -5 -5 -15 -21 -22 -34 -7 -13 -17 -29
-22 -34 -5 -6 -51 -76 -103 -156 -52 -80 -99 -150 -104 -157 -6 -7 -16 -24
-23 -38 -6 -14 -15 -25 -20 -25 -4 0 -8 -4 -8 -9 0 -5 -64 -108 -143 -228
-181 -275 -256 -390 -345 -528 -39 -60 -75 -114 -79 -120 -5 -5 -42 -62 -83
-125 -41 -63 -78 -116 -82 -118 -5 -2 -8 -8 -8 -12 0 -9 -249 -393 -269 -417
-6 -7 -11 -14 -11 -17 0 -3 -107 -167 -160 -246 -48 -71 -100 -154 -100 -161
0 -4 -3 -9 -7 -11 -5 -1 -37 -48 -73 -103 -36 -55 -68 -101 -72 -103 -5 -2 -8
-8 -8 -14 0 -6 -11 -26 -25 -44 -14 -18 -25 -37 -25 -42 0 -6 -3 -12 -7 -14
-10 -4 -81 -110 -100 -148 -4 -8 -13 -21 -20 -28 -7 -7 -13 -17 -13 -22 0 -10
38 -1 46 11 3 5 14 9 25 9 10 0 19 5 19 12 0 6 3 9 6 6 5 -6 23 1 149 56 28
13 65 29 84 36 35 14 44 27 379 540 45 69 86 132 92 140 6 8 43 65 82 125 40
61 128 196 196 300 69 105 141 215 161 245 19 30 39 57 43 58 5 2 8 8 8 12 0
5 42 73 93 152 255 391 337 514 346 525 6 7 11 15 11 18 0 3 20 35 45 71 25
35 45 66 45 68 0 4 83 129 107 162 4 5 13 18 18 27 35 60 381 583 387 585 4 2
8 8 8 13 0 5 31 57 70 115 38 58 70 109 70 114 0 5 4 10 8 12 4 2 46 62 92
133 47 72 88 132 92 133 5 2 8 7 8 11 0 5 31 55 68 112 37 57 95 146 128 198
32 51 67 101 77 109 9 9 17 20 17 25 0 5 35 61 78 125 42 65 79 122 82 127 7
14 64 99 70 105 3 3 14 22 25 43 11 20 22 37 26 37 3 0 11 11 17 25 7 14 17
31 22 38 22 25 140 209 140 218 0 5 4 9 9 9 5 0 15 12 22 28 12 23 145 227
268 411 20 29 41 61 46 70 16 28 99 155 108 166 10 12 218 332 352 540 55 85
106 163 113 172 7 10 56 83 107 163 52 80 98 150 102 155 5 6 35 52 67 102
l59 93 0 195 c0 189 -4 229 -20 189z"/>
<path d="M4610 8609 c-47 -72 -90 -139 -96 -150 -6 -10 -18 -27 -27 -37 -10
-10 -17 -21 -17 -24 0 -4 -129 -204 -160 -248 -6 -8 -35 -53 -65 -100 -30 -47
-58 -89 -62 -95 -22 -27 -63 -96 -63 -104 0 -5 -4 -11 -8 -13 -4 -1 -46 -61
-92 -133 -47 -71 -88 -134 -93 -140 -4 -5 -36 -55 -72 -110 -35 -55 -69 -105
-75 -112 -5 -7 -10 -15 -10 -18 0 -3 -16 -28 -35 -55 -19 -27 -35 -52 -35 -55
0 -3 -5 -11 -11 -18 -12 -14 -267 -402 -291 -444 -15 -25 -16 -67 -13 -398 2
-204 4 -476 5 -606 l2 -236 -28 -44 c-16 -24 -33 -48 -37 -54 -4 -5 -34 -50
-66 -100 -32 -49 -109 -169 -172 -265 -63 -96 -124 -190 -134 -207 -11 -18
-23 -33 -27 -33 -4 0 -8 -5 -8 -10 0 -6 -36 -64 -80 -130 -44 -66 -80 -124
-80 -129 0 -5 -4 -11 -8 -13 -5 -1 -33 -41 -63 -88 -29 -47 -57 -89 -62 -95
-4 -5 -36 -53 -70 -105 -33 -52 -96 -148 -139 -213 -43 -66 -78 -121 -78 -123
0 -3 -5 -10 -11 -17 -19 -22 -139 -209 -139 -217 0 -5 -3 -10 -8 -12 -4 -1
-41 -55 -82 -118 -41 -63 -134 -206 -207 -317 -73 -111 -133 -204 -133 -207 0
-2 82 31 183 74 l182 78 50 73 c46 67 216 327 240 366 6 9 14 22 18 27 10 13
263 400 312 477 9 16 41 63 124 188 43 64 30 44 163 250 59 91 112 172 119
179 6 7 16 23 23 35 20 38 71 112 79 115 4 2 7 7 7 11 0 8 141 227 159 248 6
7 11 15 11 18 0 3 16 28 35 55 19 27 35 52 35 55 0 3 5 11 11 18 13 15 199
298 199 303 0 2 12 22 28 43 38 54 22 30 362 551 84 129 202 309 262 399 59
90 108 166 108 170 0 3 12 22 28 41 15 19 45 64 67 100 21 36 41 67 45 70 3 3
25 36 49 74 l43 68 1 204 2 203 -21 -22 c-12 -12 -21 -24 -21 -27 1 -3 -52
-86 -118 -185 -195 -297 -337 -514 -405 -620 -36 -55 -68 -104 -73 -110 -4 -5
-38 -57 -76 -115 -38 -58 -129 -198 -204 -312 -74 -113 -140 -216 -147 -227
-6 -12 -14 -21 -18 -21 -4 0 -8 80 -9 178 -6 791 -8 702 12 727 8 11 28 40 44
65 33 51 206 317 221 340 6 8 80 121 164 250 85 129 206 314 269 410 63 96
174 266 247 378 l133 204 -1 155 c-1 86 -3 157 -4 159 -2 1 -41 -56 -88 -127z"/>
<path d="M5739 8728 c0 -10 -1 -83 -1 -163 l0 -146 86 -129 c47 -72 86 -134
86 -140 0 -5 4 -10 9 -10 5 0 13 -9 16 -20 3 -11 12 -26 18 -33 15 -16 57 -75
57 -80 0 -2 29 -48 65 -103 75 -114 68 -104 140 -211 30 -46 55 -85 55 -88 0
-3 5 -11 11 -18 6 -7 59 -86 118 -177 59 -91 148 -226 197 -300 49 -74 93
-143 99 -152 10 -19 203 -312 338 -516 42 -64 81 -124 84 -132 4 -8 11 -19 16
-25 5 -5 69 -102 142 -215 74 -113 139 -210 144 -217 6 -7 16 -24 23 -38 6
-14 15 -25 20 -25 4 0 8 -4 8 -9 0 -6 41 -71 90 -145 50 -75 90 -141 90 -146
0 -6 4 -10 8 -10 5 0 19 -19 32 -42 13 -24 28 -47 33 -53 4 -5 73 -109 152
-229 79 -121 154 -225 167 -233 25 -14 68 -30 82 -31 5 0 12 -4 15 -9 3 -4 44
-24 91 -42 105 -43 170 -70 193 -82 28 -15 20 3 -48 105 -36 53 -65 99 -65
102 0 3 -5 10 -11 17 -6 7 -42 62 -81 122 -40 61 -75 112 -80 113 -4 2 -8 8
-8 13 0 5 -30 54 -66 109 l-67 100 -33 -21 -34 -20 -67 103 c-37 57 -72 106
-77 110 -6 4 -7 8 -3 8 5 0 2 6 -5 14 -7 8 -49 70 -93 138 -135 210 -274 423
-282 433 -5 6 -37 55 -73 110 -35 55 -67 102 -72 103 -4 2 -8 8 -8 13 0 8
-126 205 -140 219 -7 7 -29 43 -37 60 -4 8 -9 17 -12 20 -13 11 -81 120 -81
130 0 5 -4 10 -8 10 -4 0 -16 15 -27 33 -21 36 -250 386 -264 402 -4 6 -10 15
-12 20 -10 23 -123 190 -130 193 -5 2 -9 8 -9 13 0 5 -31 57 -70 115 -38 57
-70 109 -70 114 0 4 -3 10 -7 12 -11 4 -163 236 -163 247 0 5 -3 11 -7 13 -5
2 -33 41 -63 88 -30 47 -57 87 -61 90 -3 3 -14 21 -25 40 -10 19 -22 37 -25
40 -7 7 -103 152 -108 165 -2 6 -17 27 -33 48 -16 20 -26 37 -21 37 4 0 3 4
-2 8 -6 4 -39 50 -73 102 -34 52 -62 87 -63 78z"/>
<path d="M4604 7982 c-49 -75 -130 -199 -180 -274 -90 -139 -385 -590 -404
-618 -5 -8 -35 -53 -65 -100 -30 -47 -58 -89 -62 -95 -5 -5 -24 -35 -43 -65
-19 -30 -38 -56 -42 -58 -5 -2 -8 -8 -8 -13 0 -5 -8 -22 -17 -36 -15 -23 -18
-52 -18 -186 0 -153 1 -157 17 -135 10 13 22 28 28 35 5 7 10 15 10 18 0 8 44
69 53 73 4 2 7 8 7 13 0 5 31 55 68 111 38 57 102 155 143 218 40 63 79 121
86 128 6 6 15 21 18 32 3 11 11 20 16 20 5 0 9 4 9 9 0 8 139 224 159 248 6 7
11 14 11 17 0 2 26 44 59 92 32 49 102 156 156 239 l98 150 -1 153 c0 84 -2
155 -4 157 -2 2 -44 -58 -94 -133z"/>
<path d="M5739 8105 c0 -11 -1 -84 -1 -161 l0 -142 85 -128 c46 -71 112 -172
145 -224 34 -52 65 -99 69 -105 5 -5 28 -41 53 -80 24 -38 47 -72 51 -75 3 -3
8 -10 10 -15 2 -6 42 -69 89 -140 47 -71 131 -199 187 -285 56 -85 105 -159
110 -165 5 -5 12 -17 16 -25 3 -8 43 -69 87 -135 44 -66 83 -127 87 -135 4 -8
9 -17 13 -20 3 -3 21 -30 40 -60 19 -30 38 -59 43 -65 4 -5 34 -50 66 -100 32
-49 119 -183 194 -297 75 -114 141 -217 148 -230 7 -13 15 -25 18 -28 9 -8
181 -269 181 -275 0 -22 61 -61 155 -100 95 -39 130 -54 168 -73 5 -2 -2 13
-16 34 -63 100 -267 410 -276 421 -6 7 -11 14 -11 17 0 3 -24 40 -53 83 -29
43 -77 116 -106 163 -30 47 -57 87 -60 90 -9 7 -30 42 -40 65 -5 12 -16 27
-25 34 -9 7 -16 17 -16 22 0 4 -15 29 -32 55 -18 25 -37 53 -43 62 -15 23
-130 198 -241 367 -54 83 -101 155 -104 160 -3 6 -48 75 -101 155 -52 80 -120
183 -149 230 -30 47 -58 90 -63 95 -23 29 -267 407 -267 416 0 5 -4 9 -10 9
-5 0 -10 6 -10 14 0 8 -3 16 -7 18 -11 4 -333 497 -333 509 0 5 -3 9 -8 9 -4
0 -15 12 -24 28 -15 24 -18 24 -19 7z"/>
<path d="M5736 7305 l2 -205 88 -135 c49 -74 94 -144 100 -155 6 -11 18 -28
26 -37 9 -10 17 -23 19 -28 2 -6 66 -104 142 -218 75 -114 137 -212 137 -217
0 -4 3 -10 8 -12 4 -1 50 -68 102 -148 52 -80 98 -146 102 -148 4 -2 8 -8 8
-12 0 -5 53 -89 118 -187 64 -98 119 -183 122 -188 3 -6 48 -75 101 -155 114
-171 273 -415 412 -630 55 -85 104 -157 107 -160 4 -3 10 -12 13 -20 4 -8 15
-27 25 -41 77 -115 206 -312 212 -324 3 -5 54 -84 114 -175 119 -181 261 -397
368 -560 37 -58 73 -112 78 -120 6 -8 46 -70 90 -137 52 -80 90 -128 110 -138
16 -8 31 -15 32 -14 5 1 44 -15 180 -73 123 -53 126 -54 115 -29 -6 14 -14 28
-18 31 -3 3 -48 70 -100 150 -51 80 -97 150 -102 155 -15 19 -197 300 -204
315 -4 8 -11 20 -16 25 -4 6 -46 69 -93 140 -47 72 -91 138 -99 148 -8 9 -12
17 -10 17 3 0 1 6 -5 13 -21 23 -120 179 -120 188 0 5 -4 9 -8 9 -5 0 -15 12
-23 28 -8 15 -16 29 -19 32 -12 11 -262 402 -259 404 3 2 180 -72 449 -188 19
-8 100 -42 180 -76 185 -77 185 -77 201 -109 8 -14 19 -31 24 -38 6 -6 50 -74
100 -150 49 -76 124 -191 167 -256 43 -65 78 -122 78 -126 0 -5 7 -14 15 -21
9 -7 23 -28 31 -46 9 -19 20 -34 25 -34 5 0 9 -7 9 -15 0 -8 5 -15 10 -15 6 0
10 -7 10 -15 0 -8 5 -15 10 -15 6 0 10 -4 10 -9 0 -5 41 -70 90 -145 50 -75
90 -140 90 -146 0 -5 5 -10 10 -10 6 0 10 -7 10 -15 0 -8 4 -15 8 -15 5 0 14
-10 21 -22 29 -56 153 -242 163 -246 4 -2 8 -8 8 -13 0 -5 41 -70 90 -145 50
-74 90 -139 90 -143 0 -8 81 -51 95 -51 2 0 28 -11 57 -24 84 -38 150 -66 154
-66 5 0 -73 122 -413 638 -73 111 -133 207 -133 212 0 6 -4 10 -10 10 -5 0
-10 7 -10 15 0 8 -4 15 -10 15 -5 0 -10 7 -10 15 0 8 -4 15 -10 15 -5 0 -10 7
-10 15 0 8 -4 15 -8 15 -5 0 -15 12 -23 27 -8 15 -57 93 -110 173 -52 80 -142
217 -200 305 -230 353 -288 441 -298 452 -6 7 -11 16 -12 20 -1 17 -66 96 -89
108 -14 8 -128 58 -255 111 -248 104 -250 105 -586 248 -124 53 -230 96 -235
96 -8 0 -109 143 -122 173 -3 5 -180 274 -242 367 -24 37 -192 295 -255 393
-39 60 -76 115 -82 122 -7 8 -13 16 -13 19 0 9 -64 101 -72 104 -5 2 -6 8 -2
13 3 5 0 9 -5 9 -6 0 -11 5 -11 10 0 6 -5 16 -11 23 -20 23 -99 149 -99 158 0
5 -4 9 -8 9 -4 0 -16 15 -27 33 -10 17 -73 115 -140 217 -67 102 -143 219
-170 260 -27 41 -52 77 -57 78 -4 2 -8 8 -8 13 0 5 -40 70 -90 145 -49 74 -90
139 -90 144 0 4 -4 10 -8 12 -5 2 -25 30 -45 63 -21 33 -48 72 -60 87 l-22 27
1 -204z"/>
<path d="M3209 6612 c-8 -10 -18 -24 -22 -32 -4 -8 -15 -27 -25 -41 -9 -14
-36 -55 -59 -91 -142 -217 -195 -296 -213 -318 -11 -14 -20 -31 -20 -37 0 -7
-4 -13 -10 -13 -5 0 -10 -5 -10 -10 0 -6 -18 -36 -40 -68 l-39 -57 30 -25 31
-26 -43 -69 c-24 -39 -46 -72 -49 -75 -14 -13 -51 -73 -60 -95 -5 -14 -14 -25
-20 -25 -6 0 -8 -4 -5 -10 3 -5 1 -10 -4 -10 -6 0 -11 -6 -11 -14 0 -8 -3 -16
-7 -18 -11 -5 -53 -66 -53 -77 0 -5 -3 -11 -7 -13 -9 -3 -73 -96 -73 -104 0
-9 -63 -99 -72 -102 -4 -2 -8 -8 -8 -12 0 -5 -60 -100 -133 -212 -73 -112
-155 -237 -182 -278 -74 -114 -224 -343 -235 -360 -54 -79 -260 -395 -260
-397 0 -4 -168 -257 -179 -270 -6 -7 -11 -14 -11 -17 0 -3 -19 -33 -43 -68
-23 -35 -92 -139 -152 -233 -60 -93 -112 -172 -115 -175 -3 -3 -17 -23 -30
-45 -13 -22 -27 -42 -30 -45 -4 -3 -20 -27 -35 -55 -16 -27 -32 -52 -35 -55
-3 -3 -68 -102 -145 -220 -77 -118 -145 -221 -152 -228 -6 -6 -15 -21 -18 -32
-3 -11 -11 -20 -16 -20 -6 0 -8 -4 -5 -9 5 -7 106 31 266 101 15 7 56 59 105
135 44 69 86 131 92 138 7 8 13 16 13 18 0 7 102 161 111 167 3 3 9 15 13 28
4 12 12 22 17 22 6 0 8 4 5 9 -3 5 1 11 9 15 8 3 15 10 15 15 0 6 22 43 49 83
164 246 301 459 301 468 0 6 7 13 15 16 8 4 15 10 15 14 0 8 160 255 179 277
6 7 11 15 11 18 0 3 19 34 42 68 24 34 47 70 53 79 11 19 194 298 365 558 60
91 133 203 162 249 29 47 58 89 63 95 6 6 16 23 24 39 8 15 18 27 23 27 4 0 8
5 8 10 0 12 92 153 103 158 4 2 7 8 7 12 0 5 40 69 88 142 49 73 116 176 150
228 34 52 65 100 70 106 5 5 15 21 22 34 7 14 19 31 27 38 7 7 13 19 13 27 0
7 3 15 8 17 4 2 23 28 42 58 19 30 37 57 40 60 3 3 17 23 31 45 24 39 24 43
24 272 0 128 0 233 0 233 0 0 -7 -8 -16 -18z"/>
<path d="M3210 5850 c-7 -16 -16 -30 -20 -30 -4 0 -12 -10 -19 -22 -18 -34
-27 -49 -142 -223 -58 -88 -142 -216 -186 -285 -45 -69 -86 -130 -92 -137 -6
-7 -11 -14 -11 -17 0 -2 -29 -48 -65 -101 -36 -53 -65 -100 -65 -106 0 -5 -4
-9 -10 -9 -5 0 -10 -4 -10 -9 0 -5 -29 -53 -65 -106 -36 -53 -65 -100 -65
-106 0 -5 -3 -9 -7 -9 -5 0 -24 -27 -43 -60 -19 -33 -38 -60 -42 -60 -5 0 -8
-4 -8 -9 0 -6 -29 -54 -65 -108 -36 -54 -70 -105 -75 -113 -5 -8 -54 -82 -108
-165 -110 -168 -161 -246 -274 -420 -43 -66 -81 -124 -85 -130 -5 -5 -33 -48
-63 -95 -30 -47 -58 -86 -62 -88 -5 -2 -8 -8 -8 -13 0 -5 -36 -63 -80 -129
-44 -66 -80 -124 -80 -129 0 -5 -3 -11 -7 -13 -5 -1 -37 -48 -73 -103 -36 -55
-68 -101 -72 -103 -5 -2 -8 -8 -8 -13 0 -5 -18 -35 -40 -66 -22 -32 -40 -64
-40 -70 0 -7 -5 -13 -12 -13 -6 0 -9 -3 -5 -6 3 -4 26 2 49 14 24 11 88 38
143 62 l100 42 47 71 c49 77 275 422 425 652 50 77 96 145 102 152 6 7 11 14
11 17 0 4 83 134 97 151 5 6 33 48 63 95 29 47 115 177 189 290 75 113 138
210 141 215 5 10 46 73 172 263 37 57 68 107 68 112 0 5 6 13 14 17 7 4 19 19
25 31 13 25 204 319 219 337 4 6 19 28 32 50 13 22 26 42 29 45 4 3 12 17 20
32 8 15 21 36 30 45 9 10 25 36 37 58 19 36 21 55 19 188 -1 81 -4 150 -7 153
-3 2 -11 -9 -18 -26z"/>
<path d="M8006 4337 c4 -6 47 -72 96 -145 48 -72 88 -135 88 -138 0 -3 6 -11
13 -19 6 -7 30 -41 52 -76 22 -34 48 -74 57 -88 10 -14 21 -33 25 -41 4 -8 11
-19 16 -25 5 -5 54 -80 110 -165 55 -85 164 -252 242 -370 77 -118 161 -247
185 -287 49 -78 73 -95 245 -163 11 -4 37 -16 58 -25 21 -9 40 -15 42 -13 2 2
-10 22 -26 46 -16 23 -29 45 -29 48 0 3 -5 10 -11 17 -6 7 -84 125 -174 262
-90 138 -210 322 -268 410 -305 465 -377 576 -377 581 0 2 -9 14 -20 26 -11
12 -20 27 -20 33 0 7 -33 27 -72 45 -63 29 -101 45 -216 91 -18 7 -21 6 -16
-4z"/>
<path d="M2522 2208 c-64 -32 -119 -58 -122 -59 -12 -5 -147 -71 -160 -79 -8
-4 -67 -33 -130 -63 -63 -30 -234 -113 -380 -185 l-265 -130 132 -1 132 -1
208 101 c114 56 272 132 350 170 l143 69 1250 0 c993 0 1250 -3 1250 -12 0 -7
-9 -24 -20 -38 -11 -14 -20 -30 -20 -37 0 -6 -6 -18 -13 -25 -7 -7 -42 -65
-77 -128 -35 -63 -68 -116 -72 -118 -4 -2 -8 -8 -8 -13 0 -8 -184 -333 -220
-389 -5 -8 -16 -28 -25 -45 l-15 -30 -2009 0 -2009 0 -219 -107 -218 -107
5215 0 5215 0 -105 52 c-58 29 -157 77 -220 107 l-115 55 -2000 0 c-1100 0
-2005 4 -2012 8 -6 4 -30 40 -52 80 -22 39 -54 95 -69 122 -16 28 -38 66 -49
85 -11 19 -34 59 -52 88 -17 29 -31 57 -31 62 0 6 -4 10 -9 10 -5 0 -11 8 -15
18 -3 9 -15 33 -26 52 -12 19 -30 51 -41 70 -10 19 -30 53 -44 75 -14 22 -28
47 -32 55 -3 8 -17 32 -30 52 -13 21 -23 42 -23 47 0 11 2498 14 2515 3 5 -4
12 -7 15 -7 3 0 70 -33 150 -72 80 -39 229 -112 331 -162 l187 -91 133 1 134
0 -206 102 c-113 56 -298 147 -410 201 -112 55 -280 138 -374 185 l-170 85
-2588 0 -2587 1 -118 -57z m2775 -242 c45 -76 72 -124 90 -156 8 -14 25 -43
39 -65 13 -22 27 -47 31 -55 3 -8 11 -22 18 -30 7 -8 26 -40 43 -71 29 -55 43
-79 79 -136 10 -16 18 -30 18 -33 0 -3 8 -16 16 -30 35 -55 98 -166 104 -180
5 -13 -56 -15 -515 -15 -286 0 -520 3 -520 8 0 4 11 26 26 48 14 22 33 55 43
72 10 18 80 137 155 265 75 128 136 238 136 243 0 5 4 9 8 9 5 0 14 12 21 27
7 14 30 57 52 94 38 66 40 68 79 67 39 0 42 -3 77 -62z"/>
<path d="M5135 1647 c-44 -77 -99 -172 -122 -211 -23 -39 -40 -73 -37 -75 9
-9 473 -8 487 1 8 6 9 10 1 16 -6 4 -30 43 -55 86 -24 43 -51 91 -59 105 -8
14 -39 68 -69 119 -30 51 -57 94 -60 96 -3 2 -42 -60 -86 -137z"/>
<path d="M2500 1869 c-42 -4 -100 -28 -253 -102 -109 -53 -201 -97 -206 -97
-5 0 -14 -6 -20 -14 -7 -8 -26 -18 -42 -21 -71 -16 -15 -23 164 -21 l192 2 72
37 73 37 920 0 921 0 -18 -28 c-28 -42 -41 -64 -58 -97 l-15 -30 -1548 -1
-1547 0 -172 -84 c-95 -46 -173 -87 -173 -90 0 -4 3564 -6 3580 -1 3 1 14 20
25 44 11 23 22 44 25 47 6 5 62 100 120 205 12 22 45 78 72 124 27 46 47 85
44 88 -6 7 -2091 9 -2156 2z"/>
<path d="M5797 1872 c-19 -4 -22 -13 -8 -27 5 -6 20 -30 33 -55 51 -93 240
-415 249 -425 12 -12 3578 -15 3585 -3 3 5 -4 8 -15 8 -12 0 -21 5 -21 10 0 6
-4 10 -9 10 -6 0 -77 33 -160 73 l-150 72 -1544 0 -1543 0 -47 77 -46 78 920
0 921 0 71 -37 72 -36 199 -2 198 -3 -49 27 c-27 14 -82 42 -123 61 -41 19
-76 38 -78 43 -2 4 -9 7 -16 7 -6 0 -67 27 -134 61 l-123 60 -1083 2 c-595 1
-1090 1 -1099 -1z"/>
</g>
</svg>
