<svg xmlns="http://www.w3.org/2000/svg" xmlns:xlink="http://www.w3.org/1999/xlink" viewBox="0 0 24 18">
  <defs>
    <style>
      .cls-1 {
        fill: none;
      }

      .cls-2 {
        clip-path: url(#clip-path);
      }

      .cls-3 {
        fill: #898989;
      }
    </style>
    <clipPath id="clip-path" transform="translate(0)">
      <rect class="cls-1" width="24" height="18"/>
    </clipPath>
  </defs>
  <g id="Слой_2" data-name="Слой 2">
    <g id="Слой_1-2" data-name="Слой 1">
      <g class="cls-2">
        <path class="cls-3" d="M23.82,8.18h0C22.94,6.26,19.5,0,12,0S1.06,6.26.18,8.18a2,2,0,0,0,0,1.64C1.06,11.74,4.5,18,12,18s10.94-6.26,11.82-8.18a2,2,0,0,0,0-1.64M12,16C5.69,16,2.75,10.63,2,9c.75-1.64,3.69-7,10-7s9.24,5.34,10,7c-.76,1.66-3.71,7-10,7" transform="translate(0)"/>
        <path class="cls-3" d="M12,4a5,5,0,1,0,5,5,5,5,0,0,0-5-5m0,8a3,3,0,1,1,3-3,3,3,0,0,1-3,3" transform="translate(0)"/>
      </g>
    </g>
  </g>
</svg>
